<svg version="1.1" id="Layer_1" xmlns="http://www.w3.org/2000/svg" xmlns:xlink="http://www.w3.org/1999/xlink" x="0px" y="0px"
	 width="100%" viewBox="0 0 627 577" enable-background="new 0 0 627 577" xml:space="preserve">
<path fill="#FFFFFF" opacity="1.000000" stroke="none" 
	d="
M360.000000,578.000000 
	C241.500000,578.000000 123.499977,577.979309 5.500092,578.094421 
	C1.750462,578.098083 0.904225,577.249268 0.906336,573.499939 
	C1.012927,384.166656 1.012927,194.833328 0.906336,5.500053 
	C0.904225,1.750729 1.750762,0.904521 5.500048,0.906440 
	C211.500000,1.011893 417.500000,1.011893 623.499939,0.906440 
	C627.249207,0.904521 628.095825,1.750729 628.093689,5.500053 
	C627.987122,194.833328 627.987122,384.166656 628.093689,573.499939 
	C628.095764,577.249268 627.249817,578.100403 623.499878,578.095154 
	C535.833374,577.972290 448.166656,578.000000 360.000000,578.000000 
z"/>
<path fill="#01ABDA" opacity="1.000000" stroke="none" 
	d="
M614.658203,285.791992 
	C624.880188,302.708771 625.990295,320.942963 624.420227,339.575470 
	C622.747375,359.427917 620.763916,379.254181 618.821411,399.537659 
	C616.200073,402.279999 613.061401,401.581787 610.145142,401.586487 
	C576.184387,401.640991 542.223511,401.608490 508.262695,401.622986 
	C416.536865,401.662140 324.811005,401.529175 232.659592,401.875427 
	C231.477402,402.579315 230.633713,402.832703 229.314774,402.868561 
	C221.978928,400.505157 218.342606,394.813110 214.618408,388.701416 
	C212.187271,383.980011 209.814575,379.648956 206.516922,375.462769 
	C201.263138,365.946320 195.768890,356.977020 190.453140,347.484924 
	C187.731308,340.758606 182.769531,335.500671 181.406555,328.169434 
	C182.453278,325.247345 184.921722,324.873657 187.076981,324.176056 
	C197.982285,320.646179 208.627914,316.363007 219.580231,312.978455 
	C225.073486,311.280914 229.066681,308.201447 231.852844,302.910553 
	C234.941483,297.045319 237.714600,290.980957 241.521973,285.082153 
	C243.103333,282.280243 244.284058,279.676727 245.923615,276.920837 
	C247.804138,274.365631 247.750534,272.529572 244.574402,271.110596 
	C242.978470,268.298981 240.443298,266.065552 242.518005,262.466614 
	C244.280823,261.579193 245.784729,261.541687 247.284378,261.506042 
	C291.583405,260.452271 335.655792,256.424042 379.696899,251.773224 
	C408.661438,248.714554 437.628845,245.559464 466.700836,243.656158 
	C483.981628,242.524780 501.327606,241.852432 518.614990,242.714523 
	C537.759033,243.669220 556.763794,246.130066 575.224854,253.344177 
	C589.140686,260.061646 601.937622,267.602509 611.178040,279.954346 
	C612.478882,281.693207 613.751526,283.407318 614.658203,285.791992 
z"/>
<path fill="#6035D3" opacity="1.000000" stroke="none" 
	d="
M151.069702,132.324066 
	C162.330994,119.131790 177.280106,112.113396 193.319260,107.066811 
	C208.809738,102.192863 224.808792,99.630981 240.959290,99.227852 
	C299.914886,97.756317 357.864563,88.603615 415.600037,77.460197 
	C446.298553,71.535118 476.974304,65.336372 508.152039,62.390263 
	C528.614258,60.456715 549.076477,60.015343 569.093872,65.957977 
	C600.423096,75.258781 618.538513,99.404533 618.795654,132.560104 
	C617.476807,134.383362 615.774841,134.466248 614.118286,134.505035 
	C606.468018,134.684235 598.759521,135.356689 591.182434,135.059982 
	C566.208618,134.082047 541.244080,134.828903 516.278809,134.619110 
	C498.151184,134.466782 479.998230,135.345428 461.899750,135.051758 
	C416.135345,134.309128 370.372223,134.704636 324.611542,134.518967 
	C299.997711,134.419098 275.359833,134.671371 250.737488,134.889938 
	C232.287445,135.053711 213.793320,134.703552 195.320251,134.629578 
	C183.025482,134.580338 170.728500,135.062042 158.433121,134.558502 
	C155.941940,134.456482 153.399200,134.521103 151.069702,132.324066 
z"/>
<path fill="#6034C7" opacity="1.000000" stroke="none" 
	d="
M150.494904,132.066895 
	C157.110748,133.216461 163.457184,133.596542 169.908020,133.081635 
	C176.978622,132.517212 184.064621,133.299652 191.168686,133.129501 
	C207.990112,132.726562 224.842224,132.565872 241.654510,133.127747 
	C257.045013,133.642105 272.426758,132.964050 287.815735,133.245529 
	C299.329956,133.456116 311.059235,134.112839 322.639862,132.429886 
	C325.191162,132.059113 327.900818,132.965607 330.538239,132.971176 
	C354.034973,133.020721 377.531860,133.000000 401.028687,133.000000 
	C416.887207,133.000000 432.745728,133.000000 448.604248,133.000000 
	C492.432343,133.000000 536.260437,132.999893 580.088562,133.000061 
	C592.666443,133.000107 605.244263,133.000946 618.272095,133.001038 
	C619.460388,144.543869 617.627563,155.941895 616.624634,167.767578 
	C613.776550,169.901184 610.727295,169.608383 607.747314,169.600174 
	C554.631653,169.454025 501.515167,169.491943 448.399933,169.468994 
	C384.305084,169.441299 320.208893,169.582397 256.113342,169.586395 
	C218.489395,169.588745 180.865417,169.646393 143.241516,169.592117 
	C140.437134,169.588074 137.558182,169.987961 134.518890,168.323120 
	C136.734848,154.831512 139.965393,141.948425 150.494904,132.066895 
z"/>
<path fill="#6034BE" opacity="1.000000" stroke="none" 
	d="
M133.999130,168.372711 
	C153.127731,168.001007 172.116928,168.286270 191.093201,167.913788 
	C207.658630,167.588623 224.264526,167.430954 240.783401,167.649200 
	C290.050293,168.300171 339.310699,167.622421 388.571625,167.978897 
	C406.643280,168.109680 424.716705,167.995041 442.789307,168.000671 
	C500.347137,168.018570 557.904968,168.040390 615.966309,168.100159 
	C615.726501,175.166855 614.983276,182.194107 614.107422,189.610886 
	C612.793396,191.073135 611.332581,191.501205 609.816345,191.414963 
	C601.167847,190.923065 592.555237,192.574219 583.885742,191.687836 
	C579.254517,191.214325 574.552673,191.197067 569.930725,192.056900 
	C563.437500,193.264908 556.952576,192.056168 550.495544,191.857086 
	C531.009705,191.256271 511.546234,191.703827 492.068451,191.939041 
	C484.447266,192.031052 476.765106,191.580048 469.138214,191.631287 
	C453.506775,191.736282 437.858612,191.199234 422.236023,192.288956 
	C418.408447,192.555939 414.640015,191.469223 410.786377,191.469177 
	C393.991852,191.469009 377.201965,192.743179 360.418091,192.093750 
	C345.140564,191.502594 329.867798,192.141525 314.590118,191.883606 
	C298.667480,191.614807 282.686127,191.382385 266.763733,191.810440 
	C259.470154,192.006516 252.149918,190.712143 244.483200,192.165726 
	C241.821945,192.895767 240.292419,191.442291 238.648087,190.353165 
	C214.400375,174.292496 187.923813,179.507706 171.674927,203.557632 
	C171.021683,204.524490 170.424973,205.528152 169.135712,206.449432 
	C166.185211,207.438828 163.867554,206.194061 161.508224,205.520996 
	C154.927841,203.643860 148.144791,202.752686 141.124710,201.122681 
	C137.107422,197.793732 133.800919,194.216492 130.071014,190.702942 
	C130.853470,183.056549 131.975296,175.833542 133.999130,168.372711 
z"/>
<path fill="#6034AD" opacity="1.000000" stroke="none" 
	d="
M611.891479,213.721954 
	C612.515442,222.732941 612.793579,231.408630 613.010132,240.542633 
	C610.536804,243.067581 607.595825,242.557251 604.814148,242.562820 
	C582.823120,242.606903 560.826477,242.279175 538.842346,242.672958 
	C516.777588,243.068176 494.703888,243.115768 472.655670,242.902603 
	C405.853088,242.256790 339.052521,242.912186 272.252747,242.527832 
	C267.477997,242.500381 262.614624,243.968781 257.491058,241.759491 
	C256.324921,240.793427 255.792633,239.841980 255.917038,238.887161 
	C256.976929,230.752258 255.981689,222.586563 256.640625,214.050720 
	C259.152863,212.151001 261.711334,212.458420 264.185089,212.442581 
	C274.332947,212.377640 284.476532,212.637375 294.630249,212.498886 
	C313.621338,212.239853 332.621552,212.202789 351.612305,212.473251 
	C385.071472,212.949753 418.527283,211.978607 451.982544,212.453613 
	C468.614105,212.689758 485.243195,212.524399 501.871460,212.581741 
	C535.646240,212.698196 569.418457,212.217712 603.191772,212.440231 
	C605.998596,212.458725 608.878479,212.045700 611.891479,213.721954 
z"/>
<path fill="#6034B7" opacity="1.000000" stroke="none" 
	d="
M612.422668,213.691635 
	C591.906738,214.038330 571.561646,213.559219 551.251709,214.197327 
	C541.304321,214.509857 531.348145,212.705566 521.532654,214.150253 
	C512.784973,215.437759 504.039581,214.421021 495.403625,214.426529 
	C487.000916,214.431870 478.469238,215.100891 469.960754,214.330200 
	C466.023956,213.973648 461.817108,213.940170 457.728760,213.956650 
	C435.231903,214.047394 412.734467,214.000000 390.237244,214.000000 
	C357.160767,214.000000 324.084290,213.998550 291.007812,214.000839 
	C279.927948,214.001617 268.848053,214.011963 257.287659,214.031540 
	C255.564468,214.077347 255.065567,213.143661 254.755417,212.233124 
	C252.477066,205.544434 248.570312,199.899948 243.766449,194.809967 
	C243.194016,194.203476 242.843033,193.451584 242.871063,192.272949 
	C244.000870,189.853180 245.911545,189.770798 247.734512,190.032562 
	C256.322968,191.265808 264.897552,189.831345 273.472412,190.040131 
	C277.858917,190.146957 282.371979,191.490997 286.587799,190.803680 
	C294.822723,189.461136 303.041504,190.701355 311.233765,190.416061 
	C320.945587,190.077896 330.865082,190.639023 340.652863,190.704208 
	C348.136261,190.754059 355.782318,189.970856 363.241211,190.406464 
	C368.125916,190.691742 372.980530,189.447357 377.890015,190.702042 
	C382.279114,191.823746 386.799072,190.137115 391.218262,190.139908 
	C400.836151,190.145966 410.475494,189.234329 420.106354,190.825211 
	C423.418640,191.372345 426.992371,190.081696 430.451172,190.044235 
	C441.466888,189.924850 452.484711,190.000000 463.501740,190.000000 
	C488.939850,190.000000 514.377991,189.994843 539.816101,190.003403 
	C546.705566,190.005722 553.595703,189.987076 560.442322,190.973846 
	C565.459412,191.696930 570.330933,189.996704 575.309326,189.998535 
	C587.886658,190.003159 600.463928,190.000061 613.508118,190.000244 
	C613.519287,197.775620 613.063660,205.550827 612.422668,213.691635 
z"/>
<path fill="#0CAFDC" opacity="1.000000" stroke="none" 
	d="
M231.008545,402.608826 
	C231.106537,400.571045 232.089401,399.966339 233.659271,400.005768 
	C235.156845,400.043427 236.656326,400.000671 238.154968,400.000610 
	C364.712006,399.996521 491.269012,399.993164 618.276367,399.986633 
	C618.586975,406.685516 618.447327,413.387543 618.228760,420.548676 
	C617.206055,421.734802 616.107605,422.487061 614.966064,422.241913 
	C607.361572,420.608765 599.704651,423.404724 592.110352,421.880646 
	C588.093079,421.074402 584.170776,422.836304 580.184204,422.450043 
	C567.099365,421.182129 553.952698,423.107544 540.866943,421.578674 
	C535.545776,420.957001 530.217773,422.447083 524.944458,422.304932 
	C513.979919,422.009216 503.029053,421.945801 492.070221,422.244263 
	C475.465302,422.696442 458.861786,420.712219 442.247711,422.321899 
	C437.451416,422.786621 432.623779,422.234314 427.798218,421.940582 
	C419.864105,421.457672 411.888458,421.880615 403.930237,421.924774 
	C394.639709,421.976318 385.293182,421.581970 376.072998,421.887451 
	C365.102814,422.250977 354.144989,422.057220 343.212128,421.933868 
	C333.103607,421.819824 323.002289,422.374451 312.869537,422.073486 
	C304.315186,421.819366 295.603851,421.820984 287.026794,421.673370 
	C271.895111,421.412964 256.805084,422.424377 241.680603,422.258270 
	C231.585938,422.147430 221.446426,421.993958 211.339493,421.936859 
	C198.721725,421.865631 186.115662,422.144653 173.504272,422.180969 
	C171.684021,422.186218 169.883224,421.660065 167.752258,420.846436 
	C164.585114,417.291962 167.343582,414.084686 167.714615,410.388977 
	C168.838181,407.349396 168.930542,404.246948 172.070251,402.387238 
	C184.074814,402.374023 195.664688,403.219574 207.638763,401.764923 
	C213.317764,401.757080 212.997589,406.640381 215.046082,409.982208 
	C216.432999,413.949738 219.157333,414.906403 222.670120,414.680145 
	C224.837677,414.540558 226.903442,413.818665 229.425049,413.720947 
	C234.526291,413.610504 239.330521,414.285919 243.959061,412.644348 
	C246.910538,411.597595 247.398346,410.847626 246.565491,408.077454 
	C241.143463,406.398407 235.474411,406.629395 231.008545,402.608826 
z"/>
<path fill="#26B9E2" opacity="1.000000" stroke="none" 
	d="
M620.393127,453.656738 
	C620.883057,457.029663 621.004211,460.064575 621.048279,463.549194 
	C618.562561,466.063110 615.623779,465.586700 612.837524,465.590149 
	C582.339905,465.627899 551.842224,465.617188 521.344604,465.611847 
	C416.364197,465.593384 311.383789,465.625977 206.403366,465.612762 
	C198.403992,465.611755 190.404602,465.626343 182.405258,465.603943 
	C179.907364,465.596954 177.397736,465.650574 174.537125,464.649841 
	C173.822311,464.297668 173.550644,464.134644 172.922363,463.665497 
	C171.179459,461.527222 169.940628,459.589172 168.750305,457.633392 
	C167.940262,456.302429 166.855026,454.789581 169.066925,453.107422 
	C172.113464,452.178223 174.793350,452.383972 177.449875,452.383728 
	C322.188232,452.371338 466.926575,452.370758 611.664917,452.389587 
	C614.473022,452.389954 617.348450,452.025330 620.393127,453.656738 
z"/>
<path fill="#2DBCE3" opacity="1.000000" stroke="none" 
	d="
M172.948593,463.073486 
	C175.498184,463.766083 177.758652,464.030792 180.124542,464.029877 
	C271.256317,463.994629 362.388123,464.000031 453.519928,464.000000 
	C509.026031,464.000000 564.532104,463.999847 620.504639,463.999329 
	C621.004150,466.701935 621.037109,469.404938 620.991516,472.552368 
	C619.477356,474.398193 617.635620,474.503540 615.794861,474.577240 
	C613.464355,474.670532 611.131836,474.626709 608.800232,474.626740 
	C458.067261,474.628235 307.334290,474.633057 156.601303,474.600250 
	C152.615402,474.599365 148.616943,475.086182 144.160675,474.308167 
	C141.239517,469.663727 139.753082,464.840057 138.734116,459.446655 
	C144.543900,456.058044 150.733917,457.911377 157.195892,457.680267 
	C159.658646,457.930328 161.215530,459.065552 163.013794,460.546051 
	C165.970474,463.300140 168.451202,466.505157 172.948593,463.073486 
z"/>
<path fill="#13B2DE" opacity="1.000000" stroke="none" 
	d="
M166.177933,420.023804 
	C177.281876,421.257843 188.030762,419.921570 198.747147,420.174957 
	C208.101059,420.396179 217.487823,420.482117 226.838135,420.722198 
	C236.921204,420.981110 247.167007,420.213104 257.219055,420.545685 
	C266.261322,420.844849 275.308228,420.021179 284.342224,420.265320 
	C292.714264,420.491516 301.381866,421.770508 309.934387,420.193451 
	C313.216766,419.588165 316.868530,421.238708 320.254639,420.896912 
	C331.028107,419.809418 341.971405,419.866455 352.563629,420.531036 
	C362.487518,421.153656 372.266388,419.563049 382.216980,420.560303 
	C389.757660,421.316040 397.800629,420.300110 405.528137,420.391388 
	C413.702423,420.487915 421.935638,418.877502 430.145447,420.737701 
	C433.321045,421.457245 436.782715,421.120819 440.100494,420.969025 
	C451.760162,420.435547 463.375641,420.280396 475.081024,420.653748 
	C486.237976,421.009613 497.581879,421.711456 508.775177,420.002869 
	C512.648071,419.411682 516.295044,420.998962 520.132935,421.082855 
	C526.795776,421.228424 533.303650,419.604889 539.989624,419.929871 
	C549.294006,420.382172 558.684998,420.220673 567.922485,420.529083 
	C577.278748,420.841461 586.636047,419.692749 596.049744,420.734161 
	C602.975769,421.500305 610.166077,419.923889 617.693970,421.005249 
	C618.398438,423.398315 618.646851,425.788818 618.847107,428.587585 
	C617.126465,431.324738 614.617249,431.552734 612.089233,431.555603 
	C579.958069,431.592194 547.826599,431.757904 515.695984,431.476990 
	C507.206635,431.402802 498.722015,431.649902 490.233032,431.634827 
	C455.270966,431.572815 420.308685,431.616913 385.346497,431.607086 
	C327.091217,431.590759 268.835510,431.740448 210.580948,431.528595 
	C195.612396,431.474152 180.629532,432.320435 165.216263,431.026550 
	C163.110184,430.055115 162.926834,428.533508 162.918335,426.512817 
	C163.558899,423.946045 164.320831,421.889221 166.177933,420.023804 
z"/>
<path fill="#18B4DF" opacity="1.000000" stroke="none" 
	d="
M163.321350,430.084961 
	C175.589752,429.683716 187.445969,429.354584 199.190125,429.619690 
	C228.500793,430.281372 257.801208,429.950256 287.100128,429.890991 
	C313.386353,429.837860 339.689270,431.040375 365.976013,429.239441 
	C369.126617,429.023560 372.506775,430.016235 375.836151,430.014526 
	C418.332336,429.992462 460.828491,430.000000 503.324677,430.000000 
	C539.262695,430.000000 575.200745,430.000336 611.138794,429.999207 
	C613.461548,429.999146 615.816223,430.238495 618.398560,429.061340 
	C619.076599,432.001190 619.354248,435.006561 619.612976,438.461975 
	C618.242126,440.479034 616.358521,440.468231 614.537659,440.567383 
	C612.208313,440.694153 609.873718,440.628906 607.541382,440.628937 
	C463.092682,440.630493 318.643951,440.631439 174.195236,440.623199 
	C171.032593,440.623047 167.862930,440.782623 164.227188,440.268463 
	C160.105164,437.327698 159.936417,435.444214 163.321350,430.084961 
z"/>
<path fill="#5F35A2" opacity="1.000000" stroke="none" 
	d="
M256.089417,240.942413 
	C260.662018,241.856964 264.942261,240.993301 269.208313,240.993881 
	C334.459259,241.002670 399.710297,240.946716 464.961090,241.045227 
	C477.910370,241.064774 490.883545,242.342957 503.802887,241.870377 
	C539.874207,240.550873 575.947266,241.237640 612.483521,241.000595 
	C613.349609,245.040100 613.750610,249.079269 614.087891,253.558975 
	C612.118286,255.809753 609.703308,255.373688 607.428528,255.444473 
	C597.498779,255.753479 587.578857,254.849243 577.223938,255.276825 
	C547.103088,244.065445 516.094482,242.902283 484.935669,244.261948 
	C455.396698,245.550949 425.967407,248.480362 396.569702,251.800858 
	C370.511627,254.744171 344.339172,256.670746 318.220856,259.085571 
	C293.201416,261.398804 268.111084,262.407440 242.558868,263.361023 
	C241.964127,263.258392 241.822647,263.070770 241.676102,262.530792 
	C243.011063,258.859955 246.138687,257.004547 248.185257,254.238190 
	C251.230530,250.121826 253.087570,245.371384 256.089417,240.942413 
z"/>
<path fill="#53CAEA" opacity="1.000000" stroke="none" 
	d="
M181.228729,518.462830 
	C176.876633,516.427124 173.509796,513.642639 170.084976,510.432434 
	C169.825455,507.353699 171.921982,506.977173 173.902313,506.614014 
	C175.872055,506.252777 177.886703,506.374084 179.883972,506.374023 
	C320.917633,506.369690 461.951324,506.368164 602.984985,506.386993 
	C605.791504,506.387360 608.668030,506.019135 611.705566,507.682190 
	C610.414856,512.419861 607.104919,515.572693 603.637634,518.984131 
	C596.410034,521.589783 589.156250,520.419373 582.121033,520.392822 
	C561.489685,520.315063 540.843628,520.291199 520.220459,520.255310 
	C499.097137,520.218567 477.945923,520.225220 456.810303,520.567444 
	C452.153595,520.642883 447.499908,520.476990 442.418945,520.578369 
	C426.039795,517.841125 410.246796,514.134888 394.001221,512.705322 
	C370.823090,510.665710 347.997955,512.109619 325.406952,517.592468 
	C324.279114,517.866211 323.136627,518.079895 321.601807,518.375000 
	C318.051666,517.580933 314.945404,518.666809 311.802826,518.662109 
	C269.930450,518.599182 228.057953,518.583557 186.185516,518.642822 
	C184.684937,518.644958 183.201523,518.519836 181.228729,518.462830 
z"/>
<path fill="#20B7E0" opacity="1.000000" stroke="none" 
	d="
M620.818115,453.586548 
	C470.194092,453.994904 319.626312,453.995117 168.598541,453.992523 
	C165.024689,452.038849 163.339844,449.417358 164.574097,445.365356 
	C168.520020,444.109039 172.233200,444.183838 175.857346,444.183899 
	C191.953232,444.184174 208.054749,444.314209 224.145889,444.315399 
	C241.105927,444.316681 258.081482,445.142059 275.060669,443.841553 
	C281.629639,443.338440 288.317169,444.574890 294.989044,444.541473 
	C313.924927,444.446625 332.850098,443.372314 351.788452,443.835022 
	C368.060364,444.232574 384.366241,443.419922 400.588806,444.125336 
	C417.227142,444.848816 433.782623,443.125397 450.444824,444.195801 
	C467.336426,445.280823 484.365601,444.483276 501.320770,443.649933 
	C502.152496,443.609039 502.986298,443.487823 503.815491,443.534058 
	C512.936462,444.042236 522.107788,444.920898 531.184753,443.980865 
	C542.188782,442.841278 553.103638,444.283325 564.065186,444.170319 
	C581.517822,443.990295 598.985107,444.446198 616.446350,444.620636 
	C617.450378,444.630646 618.421631,444.909149 619.653564,445.730896 
	C620.844360,448.328674 620.827637,450.757324 620.818115,453.586548 
z"/>
<path fill="#1CB5DF" opacity="1.000000" stroke="none" 
	d="
M620.076172,445.594543 
	C468.399750,445.168732 316.781067,445.698425 164.722412,445.993652 
	C161.760986,444.569702 161.616318,442.332947 162.407288,439.475830 
	C165.135681,439.065063 167.634567,439.004120 170.133469,439.004059 
	C317.109833,438.999512 464.086182,439.000244 611.062561,438.997986 
	C613.561951,438.997955 616.061401,438.967804 619.077393,438.931885 
	C619.773987,441.004272 619.953918,443.096436 620.076172,445.594543 
z"/>
<path fill="#90DAEE" opacity="1.000000" stroke="none" 
	d="
M63.400169,364.859558 
	C54.287991,362.888519 46.641220,358.544342 39.067062,353.377075 
	C38.732647,352.272369 38.424576,351.468750 38.463715,350.632965 
	C39.181774,335.299622 37.351109,320.022156 37.468410,304.702698 
	C37.483711,302.704102 37.460995,300.698334 38.272636,298.398315 
	C39.115234,296.811615 40.349621,296.372101 41.487324,295.738434 
	C44.207260,294.223511 43.043564,293.086487 40.705235,291.956970 
	C39.294971,291.140045 38.504261,290.269745 38.432850,288.573547 
	C40.766930,284.809967 43.465092,286.061127 46.222012,287.491974 
	C47.781487,288.301331 48.530743,290.271057 50.895138,290.574890 
	C48.981945,285.335907 44.281471,284.940857 39.982517,283.309387 
	C39.490791,282.645691 39.379597,282.187561 39.458263,281.356689 
	C43.066872,278.730194 48.287937,279.727692 52.329891,283.378967 
	C53.545605,284.477173 54.174244,286.096985 55.651379,287.015533 
	C54.156658,282.305145 50.260239,279.080353 45.205502,278.346436 
	C43.124168,278.044250 40.847244,278.472168 38.930882,276.363831 
	C36.764374,260.948608 36.514965,245.868622 39.070793,230.418365 
	C47.893070,226.217789 55.993999,228.139572 63.635418,236.169617 
	C64.372314,237.844727 64.500694,239.166885 64.550140,240.498413 
	C66.011253,279.846802 65.606743,319.211487 65.559380,358.572815 
	C65.556801,360.721558 65.550934,362.935120 63.400169,364.859558 
z"/>
<path fill="#87D7ED" opacity="1.000000" stroke="none" 
	d="
M39.691746,280.565247 
	C39.988838,281.293640 39.993511,281.838043 39.999397,282.790771 
	C38.684654,285.891968 34.736877,286.008270 33.801777,289.601044 
	C35.800961,289.732086 36.716900,287.794006 38.656029,287.841370 
	C39.004642,289.177704 39.497719,290.158295 40.900276,290.957275 
	C41.096306,292.836884 40.123161,294.416595 40.180351,296.508728 
	C37.928093,304.455719 38.676159,312.290375 39.326591,319.933990 
	C40.253353,330.824921 40.114185,341.644623 39.197723,352.797607 
	C22.138252,342.350220 10.804138,327.455688 7.185628,307.884399 
	C2.019612,279.943146 9.814137,255.252533 28.487270,233.931732 
	C29.345978,232.951248 30.595211,232.245773 30.788296,230.444244 
	C33.427639,227.866226 36.311275,228.261429 39.628910,229.679047 
	C38.438225,234.341797 39.053955,238.840149 39.020573,243.274750 
	C38.952068,252.375900 39.014671,261.477966 38.987713,270.579559 
	C38.982281,272.413605 38.999851,274.218048 39.931046,276.292175 
	C37.743423,279.196533 33.940456,279.070557 31.661293,281.617157 
	C30.240541,283.204620 28.503963,284.524078 27.602732,287.558167 
	C31.344368,283.898285 34.115459,279.850250 39.691746,280.565247 
z"/>
<path fill="#42C3E7" opacity="1.000000" stroke="none" 
	d="
M618.749756,487.752167 
	C619.314087,490.184601 618.735596,492.226807 617.876099,494.614014 
	C613.724121,496.177704 609.526794,496.638489 605.450073,496.347626 
	C598.653381,495.862671 591.839417,496.584747 585.056946,495.669281 
	C581.598145,495.202393 578.068970,495.326569 574.599243,495.937927 
	C572.292236,496.344391 569.917664,496.809387 567.644714,496.404480 
	C558.559265,494.785828 549.367554,496.013000 540.306885,495.990997 
	C530.911255,495.968231 521.458252,495.127075 511.961029,496.072052 
	C503.763214,496.887726 495.359375,495.942566 487.056091,496.343689 
	C476.443115,496.856354 465.859650,495.813416 455.221802,496.185944 
	C443.613770,496.592499 431.952332,496.467468 420.311432,496.363556 
	C411.031555,496.280731 401.734070,496.160339 392.454865,496.137604 
	C377.999420,496.102234 363.502655,497.562408 349.067566,495.710632 
	C345.863708,495.299622 342.766144,496.243958 339.630554,496.276886 
	C323.149567,496.449982 306.671783,496.569641 290.184082,496.187531 
	C280.562347,495.964569 270.918976,495.755585 261.274109,495.980011 
	C250.815445,496.223328 240.368484,496.507233 229.866684,496.019653 
	C222.834747,495.693207 215.643448,495.151031 208.508194,496.047607 
	C202.256577,496.833130 195.949326,495.899170 189.627533,496.135773 
	C178.715317,496.544128 167.721832,496.221252 156.393799,495.217316 
	C154.633392,493.252594 153.263840,491.506195 151.816193,489.423950 
	C154.751297,486.378662 158.473724,486.580933 162.117172,486.654602 
	C179.204498,487.000061 196.317764,486.675934 213.371399,487.168762 
	C225.160324,487.509460 236.864746,486.062347 248.725418,487.118378 
	C259.204987,488.051422 269.982941,488.365570 280.593262,486.775208 
	C286.388794,485.906525 292.279968,486.654358 298.002258,487.031494 
	C312.622925,487.995148 327.201965,486.651917 341.815247,487.164886 
	C352.205444,487.529633 362.742401,488.625671 373.171814,486.670258 
	C376.461975,486.053406 379.826569,486.920929 383.110535,487.232483 
	C392.405487,488.114258 401.692535,487.018585 410.962341,487.071289 
	C421.370636,487.130463 431.872314,487.075256 442.298798,487.080963 
	C451.903809,487.086243 461.515320,486.279724 471.163910,486.994446 
	C477.223297,487.443298 483.422516,487.768402 489.538452,486.890717 
	C492.528320,486.461639 495.507416,486.468079 498.496368,486.904510 
	C506.945496,488.138184 515.411621,487.111816 523.866882,487.006348 
	C530.658203,486.921692 537.438232,487.201599 544.241882,487.026459 
	C562.505005,486.556183 580.769287,488.053528 599.058228,487.168854 
	C605.468262,486.858795 611.962341,486.465027 618.749756,487.752167 
z"/>
<path fill="#4DC7E9" opacity="1.000000" stroke="none" 
	d="
M612.339722,507.805695 
	C466.667938,508.014099 321.259796,508.005341 175.851624,508.018280 
	C173.924957,508.018463 171.776413,507.426239 170.126648,509.774536 
	C167.658112,507.978302 165.383926,505.822449 162.947601,503.370667 
	C163.979492,501.134155 165.957840,500.793579 167.970474,500.583557 
	C170.127533,500.358551 172.298538,500.393646 174.462112,500.440674 
	C200.583435,501.008789 226.705124,500.105621 252.825180,500.450958 
	C272.953552,500.717041 293.093262,500.869568 313.210449,500.727020 
	C356.832275,500.417877 400.454437,500.297607 444.071442,500.623688 
	C461.697632,500.755463 479.322144,500.258820 496.976685,500.860138 
	C509.696045,501.293365 522.583252,500.451263 535.388062,500.502747 
	C558.846191,500.597015 582.302490,500.569275 605.759766,500.462463 
	C608.537415,500.449829 611.492371,500.016205 614.020874,502.682159 
	C613.691956,504.603241 613.147644,506.096741 612.339722,507.805695 
z"/>
<path fill="#97DCEF" opacity="1.000000" stroke="none" 
	d="
M63.217308,365.350525 
	C64.177177,363.132935 64.004570,360.950409 64.004135,358.786438 
	C63.998024,328.631500 64.375572,298.469299 63.794651,268.325562 
	C63.593430,257.884491 63.089825,247.423340 63.004013,236.495667 
	C64.141731,232.808701 66.534431,230.457855 68.743484,228.030502 
	C71.309303,225.211166 72.524361,222.139465 71.097969,218.482330 
	C69.728714,214.971695 66.700989,213.732040 63.211582,213.324295 
	C61.900013,213.171051 60.547993,213.200531 59.119812,212.210724 
	C68.852737,206.993439 79.509499,204.208572 90.346718,202.004639 
	C92.117470,201.644531 93.913231,201.407379 96.130356,201.198257 
	C96.745850,201.745483 97.011650,202.255585 96.878426,202.714279 
	C94.813766,209.823364 95.726562,216.710754 98.209694,223.855621 
	C97.210930,224.970123 96.158981,225.149918 94.698997,225.303925 
	C90.880226,225.005341 89.089485,227.009094 88.016808,229.881943 
	C86.223686,234.684296 83.352699,238.586609 79.179199,241.648636 
	C76.548676,243.578613 74.941399,246.461929 74.612244,249.697433 
	C73.760651,258.068359 74.361328,266.287537 78.318512,274.344727 
	C80.095406,278.967377 82.739120,282.797058 84.109528,287.596924 
	C84.723892,292.750153 83.549423,297.068573 80.955208,301.103363 
	C78.017677,305.672119 75.530907,310.497253 73.177727,315.811340 
	C67.739571,328.419769 75.919708,350.793396 89.002693,356.991699 
	C94.823692,360.497406 101.325890,361.244141 107.027618,364.491760 
	C98.325912,370.528290 88.525497,370.582672 78.770103,369.677063 
	C73.558662,369.193298 68.388916,367.649292 63.217308,365.350525 
z"/>
<path fill="#33BEE4" opacity="1.000000" stroke="none" 
	d="
M143.745117,474.506714 
	C146.104385,472.617432 148.817230,473.006226 151.458572,473.006104 
	C307.635193,472.998901 463.811798,472.999268 620.450684,472.997833 
	C620.912170,474.390106 620.911438,475.783508 620.810059,477.583984 
	C618.508667,480.085022 615.716980,479.584259 613.114502,479.580048 
	C576.468750,479.520630 539.822571,479.602753 503.177094,479.592438 
	C479.860077,479.585876 456.533386,479.745880 433.218170,479.764160 
	C406.735596,479.784943 380.245850,479.710022 353.759674,479.635986 
	C317.438171,479.534424 281.116119,479.564178 244.794464,479.624664 
	C213.482422,479.676788 182.170532,479.502594 150.858612,479.631653 
	C149.527283,479.637146 148.190338,479.721222 146.402222,479.255066 
	C144.661804,477.992950 144.111969,476.485107 143.745117,474.506714 
z"/>
<path fill="#36BFE5" opacity="1.000000" stroke="none" 
	d="
M145.987915,479.466797 
	C147.477737,477.246704 149.636383,478.039398 151.530060,478.035187 
	C175.520309,477.981689 199.510727,478.000000 223.501099,478.000000 
	C290.082336,478.000000 356.663574,478.000000 423.244812,478.000000 
	C460.004669,478.000000 496.764496,478.000519 533.524353,477.999817 
	C562.287415,477.999298 591.050476,477.997223 620.261475,477.993469 
	C620.623108,479.125305 620.536865,480.259521 620.287170,481.698730 
	C618.323303,483.546692 616.141907,483.498016 613.964966,483.488220 
	C583.820312,483.352966 553.675476,483.541992 523.530029,483.389313 
	C512.735840,483.334595 501.928711,483.209198 491.120972,483.380524 
	C466.837036,483.765533 442.543823,483.450989 418.254211,483.468903 
	C358.310852,483.513123 298.367401,483.508453 238.423981,483.488434 
	C210.623169,483.479156 182.822372,483.453888 155.021545,483.479584 
	C152.709854,483.481720 150.332138,483.804810 147.784012,482.252045 
	C146.935440,481.250824 146.495560,480.516235 145.987915,479.466797 
z"/>
<path fill="#5ECEEC" opacity="1.000000" stroke="none" 
	d="
M442.372192,520.913147 
	C442.861267,517.901855 445.279053,519.057556 447.033508,519.050842 
	C467.641357,518.971680 488.249634,519.000000 508.857788,519.000000 
	C524.725403,519.000000 540.604980,519.376221 556.456787,518.875549 
	C568.156982,518.506042 579.858154,520.039185 591.588806,518.303772 
	C594.930481,517.809387 598.750916,519.077698 602.876526,519.104736 
	C594.813477,528.069946 583.534729,530.975708 572.007690,532.893799 
	C546.258728,537.178284 520.666931,534.008911 495.136353,530.505920 
	C477.547333,528.092651 460.070068,524.988647 442.372192,520.913147 
z"/>
<path fill="#49C6E8" opacity="1.000000" stroke="none" 
	d="
M614.511902,502.900452 
	C612.286011,501.903992 610.118958,501.987549 607.943481,501.990417 
	C593.751953,502.009033 579.560364,502.000000 565.368835,502.000000 
	C547.954651,502.000000 530.530945,501.643616 513.129211,502.109253 
	C498.368866,502.504211 483.634705,501.901703 468.887573,501.958252 
	C434.692749,502.089417 400.494263,501.737610 366.302979,502.108826 
	C348.755524,502.299316 331.209930,501.775726 313.639404,502.449341 
	C305.907257,502.745758 297.871460,502.272522 290.007263,502.163879 
	C260.425262,501.755249 230.826401,501.611877 201.250839,502.209198 
	C190.811447,502.420013 180.422546,501.511841 170.006241,501.965576 
	C167.829605,502.060364 165.688232,502.082581 163.217590,503.008514 
	C161.915756,502.269287 161.046082,501.463806 160.062225,500.380157 
	C159.822723,497.276978 161.957108,496.970856 163.930466,496.688354 
	C166.406982,496.333771 168.938995,496.322479 171.415955,496.520569 
	C186.017899,497.688416 200.641891,496.422607 215.273041,497.100677 
	C225.510117,497.575073 235.861893,496.467712 246.168274,496.704071 
	C261.466553,497.054962 276.788086,495.521362 292.069153,497.340607 
	C297.411652,497.976685 302.652527,496.422455 308.007477,496.465698 
	C336.791046,496.698303 365.575745,496.653961 394.360840,496.604095 
	C411.975525,496.573578 429.592316,496.645874 447.208801,496.638977 
	C466.663269,496.631378 486.126801,496.120758 505.569366,496.624237 
	C529.534973,497.244873 553.487793,496.026855 577.458862,496.764771 
	C587.885742,497.085724 598.392883,497.322266 608.855591,496.567444 
	C611.159180,496.401276 613.537781,496.252319 616.022339,497.770813 
	C615.822021,499.633209 615.304810,501.162231 614.511902,502.900452 
z"/>
<path fill="#4D2473" opacity="1.000000" stroke="none" 
	d="
M98.161423,224.321442 
	C93.728218,216.948135 93.219818,209.639816 96.453491,201.668640 
	C98.530182,198.220245 100.458183,195.131500 103.453918,192.907745 
	C105.335602,191.510941 107.458649,189.722229 109.652931,190.128296 
	C116.170639,191.334473 122.671654,188.637985 129.584488,190.365311 
	C133.722397,192.881546 137.812546,194.983780 139.870941,199.717606 
	C142.954178,203.252930 142.430298,207.495804 143.217377,211.323456 
	C143.861053,214.453659 144.486069,217.526138 146.513046,220.071259 
	C150.807480,225.463440 151.318359,231.177856 148.003067,237.632233 
	C144.592270,242.290558 144.739914,246.556503 146.965546,251.435959 
	C149.140839,256.205048 149.356674,261.357025 145.717209,266.219238 
	C138.453033,267.156830 132.808853,264.630035 127.802856,259.447968 
	C126.471428,256.918091 126.273537,254.486450 125.823013,251.709076 
	C125.808334,250.778534 125.854012,250.252533 126.006866,249.349182 
	C126.809387,246.075653 127.415543,243.153748 128.269684,240.287140 
	C130.033554,234.367279 130.031647,228.603714 127.239113,222.847763 
	C125.196075,218.636673 124.098648,214.101303 125.069489,209.301712 
	C125.476044,207.291779 125.639557,205.346207 123.175095,204.280334 
	C120.909286,203.300385 119.003555,203.705750 117.199890,205.237946 
	C115.220558,206.919342 114.362831,209.282639 113.185944,211.877777 
	C109.147163,216.773499 107.294746,217.104721 102.940208,213.483215 
	C100.686119,211.608566 99.820595,212.272354 99.433647,214.756912 
	C99.175186,216.416443 99.455727,218.033340 100.060493,219.599289 
	C100.716072,221.296844 101.444717,222.999619 99.937012,224.981598 
	C99.091637,225.272842 98.650429,225.096817 98.161423,224.321442 
z"/>
<path fill="#3DC2E6" opacity="1.000000" stroke="none" 
	d="
M619.153931,487.687317 
	C606.002380,488.829865 592.855042,489.490906 579.752319,488.846527 
	C570.763306,488.404419 561.783203,489.007935 552.771423,488.445343 
	C547.989380,488.146820 542.767700,488.058014 537.664246,488.693787 
	C530.424866,489.595612 522.770447,487.466522 515.607483,488.606415 
	C506.118835,490.116394 496.924011,487.118164 487.416565,488.569092 
	C481.690094,489.442993 475.351898,489.567108 469.336456,488.297760 
	C468.050476,488.026398 466.634399,487.795776 465.378906,488.047821 
	C456.424774,489.845398 447.365631,487.495178 438.376617,488.906769 
	C433.183441,489.722290 427.926178,487.336365 422.673370,488.394043 
	C413.997894,490.140930 405.340088,487.379791 396.573608,488.686798 
	C390.683136,489.565063 384.449768,488.928345 378.470520,488.172577 
	C373.861389,487.589935 369.584930,489.046356 365.119781,489.020996 
	C352.824677,488.951141 340.519806,488.237610 328.262329,488.339386 
	C321.613403,488.394592 314.835510,488.473633 308.124573,488.832550 
	C301.787781,489.171448 295.381073,488.591736 289.028259,488.110199 
	C284.498199,487.766815 280.079224,488.937225 275.668213,488.863953 
	C264.607086,488.680145 253.517197,489.773376 242.470459,488.078491 
	C237.019089,487.242065 231.500656,489.272430 226.125565,488.843475 
	C215.321838,487.981323 204.527603,488.803070 193.733185,488.482666 
	C184.844864,488.218842 175.815475,488.364685 166.860138,488.538361 
	C162.122086,488.630219 157.362747,488.148712 152.183868,489.060852 
	C150.304871,488.362152 149.995255,486.860748 149.271149,485.297119 
	C151.595703,482.757446 154.573715,483.541016 157.322540,483.539093 
	C234.477768,483.485046 311.633026,483.521271 388.788269,483.505096 
	C463.104126,483.489502 537.419983,483.508148 611.735840,483.525177 
	C614.205872,483.525757 616.756531,483.082275 619.479919,484.670715 
	C619.638916,485.787842 619.417175,486.578766 619.153931,487.687317 
z"/>
<path fill="#46C5E8" opacity="1.000000" stroke="none" 
	d="
M616.568604,497.922791 
	C607.638611,498.344543 598.936829,498.812561 590.237549,498.770599 
	C577.944885,498.711304 565.645874,498.465881 553.364685,497.945038 
	C541.671997,497.449097 530.008423,498.360016 518.314636,498.255859 
	C500.838593,498.100189 483.321136,497.212830 465.873108,498.183533 
	C455.888916,498.738983 445.938782,497.892700 435.933502,498.604645 
	C430.250824,499.009033 424.122681,497.933899 418.288269,498.152405 
	C402.201263,498.754883 386.136017,497.358887 370.073456,498.054810 
	C362.200317,498.395905 354.188324,499.153839 346.472626,498.665344 
	C333.323639,497.832825 320.162445,497.513702 307.119385,498.268127 
	C294.474518,498.999573 281.964905,497.526062 269.381500,497.926788 
	C258.369781,498.277496 247.336594,497.888947 236.315582,498.032379 
	C226.034348,498.166168 215.756042,498.817627 205.477493,498.793671 
	C192.277924,498.762909 179.079788,498.261810 165.879929,498.025848 
	C163.957428,497.991486 161.807037,497.419586 160.142548,499.745850 
	C158.012924,499.183868 157.595123,496.998932 156.105713,495.310944 
	C162.143112,493.239197 168.401917,494.074036 174.485764,494.858002 
	C178.641953,495.393616 182.750458,494.680847 186.695602,494.545258 
	C194.401871,494.280426 202.138992,495.306763 209.823013,494.237457 
	C211.624725,493.986694 213.476440,493.975037 215.300476,494.024902 
	C226.165146,494.321960 237.027725,494.894928 247.892441,494.929871 
	C256.969574,494.959106 266.080963,493.739685 275.120331,494.196991 
	C295.648956,495.235504 316.198608,495.496979 336.694122,494.772675 
	C351.186523,494.260529 365.660126,495.090271 380.149323,494.716095 
	C388.527069,494.499817 397.214203,494.223480 405.753815,494.518097 
	C416.819366,494.899963 428.085266,496.324982 439.255066,494.266022 
	C442.220795,493.719330 445.436462,495.569031 448.588776,494.973175 
	C459.915894,492.832062 471.329926,495.024567 482.709290,494.631500 
	C490.498230,494.362488 498.670074,492.891937 506.636444,494.914398 
	C510.894135,495.995331 515.202515,493.355194 519.470276,494.069153 
	C529.320190,495.716888 539.251953,494.449738 549.083191,494.579102 
	C559.881897,494.721252 570.791260,495.281219 581.694580,494.224579 
	C589.949036,493.424561 598.406067,494.582947 606.763611,495.039948 
	C610.189575,495.227295 613.550964,492.736450 617.362183,494.926392 
	C617.425232,495.903320 617.111572,496.822327 616.568604,497.922791 
z"/>
<path fill="#39C0E5" opacity="1.000000" stroke="none" 
	d="
M619.955750,484.630554 
	C463.278992,484.996613 306.697327,484.996277 149.662598,484.993652 
	C148.649033,484.178650 148.088531,483.365906 147.451691,482.269287 
	C160.638687,481.990265 173.902039,481.999054 187.165390,481.999359 
	C253.883591,482.000793 320.601776,482.000000 387.319977,482.000000 
	C402.553253,482.000000 417.786560,482.000000 433.019836,482.000000 
	C453.082977,482.000000 473.146118,481.999939 493.209259,482.000061 
	C535.194519,482.000305 577.179749,482.000702 619.644409,482.002380 
	C620.099426,482.757233 620.075134,483.510742 619.955750,484.630554 
z"/>
<path fill="#87E8F7" opacity="1.000000" stroke="none" 
	d="
M58.422291,211.956345 
	C60.369949,211.961700 61.866936,211.900406 63.348713,212.022964 
	C67.381248,212.356522 70.823990,213.818939 72.357819,217.867493 
	C73.906433,221.955109 73.047485,225.577286 69.838509,228.722778 
	C67.613167,230.904099 65.673019,233.376404 63.305389,235.873749 
	C62.680664,235.976212 62.196270,236.043228 62.054375,235.853729 
	C56.513683,228.455551 48.497269,230.052155 40.467525,230.010345 
	C37.241192,230.023117 34.481564,230.031723 31.252232,230.074966 
	C27.137421,230.113235 23.492186,230.138260 19.847244,230.115921 
	C12.694921,230.072098 9.171358,227.217010 9.015424,221.377350 
	C8.868478,215.874283 13.289079,212.139221 20.190460,212.104858 
	C30.959877,212.051239 41.729759,212.095566 52.499432,212.084686 
	C54.321213,212.082855 56.142933,212.012344 58.422291,211.956345 
z"/>
<path fill="#5ECEEC" opacity="1.000000" stroke="none" 
	d="
M295.127502,524.685303 
	C280.131348,529.645874 264.794250,532.155151 249.335724,533.971497 
	C237.947159,535.309570 226.520721,535.947815 215.108978,534.232361 
	C206.118729,532.880798 197.995529,529.156372 189.943848,524.445923 
	C191.697449,520.648804 195.177094,521.442810 198.203415,521.432556 
	C224.200607,521.344482 250.198151,521.385010 276.195587,521.387085 
	C280.528290,521.387390 284.863678,521.278748 289.192810,521.458496 
	C291.509430,521.554626 293.961731,521.566772 295.127502,524.685303 
z"/>
<path fill="#58CBEB" opacity="1.000000" stroke="none" 
	d="
M295.486938,525.159180 
	C294.111084,522.812927 292.047607,522.994751 290.032715,522.995239 
	C258.311798,523.002075 226.590866,523.000854 194.869934,522.997864 
	C193.371735,522.997681 191.869904,522.944275 190.127686,523.985229 
	C186.501526,523.069519 183.872482,520.983643 180.962158,518.770020 
	C181.718903,516.633545 183.519135,517.011230 185.132874,517.010742 
	C229.200714,516.997864 273.268555,516.999939 317.336395,517.006348 
	C318.486542,517.006531 319.682953,516.858154 320.937500,518.056396 
	C312.925110,521.272095 304.382568,523.115479 295.486938,525.159180 
z"/>
<path fill="#01ABDA" opacity="1.000000" stroke="none" 
	d="
M134.682297,403.297058 
	C133.717438,391.995209 133.880463,381.010834 134.356293,369.567444 
	C135.396301,367.816254 136.844208,367.828094 138.676468,367.761292 
	C143.120010,368.403870 147.112411,369.237091 151.562668,369.810303 
	C152.455048,369.958405 152.939835,370.057892 153.417709,370.188446 
	C160.506271,372.125061 161.365326,373.791962 158.307434,380.289215 
	C156.329926,384.490845 154.963806,388.895813 153.547943,393.291290 
	C152.633774,396.129303 152.401184,399.100067 151.728775,402.412659 
	C151.354828,403.023956 151.160400,403.242401 150.578156,403.676422 
	C145.113159,404.659424 140.042587,405.064331 134.682297,403.297058 
z"/>
<path fill="#60359F" opacity="1.000000" stroke="none" 
	d="
M577.060608,255.598877 
	C580.459839,251.533386 585.360840,253.423798 589.310181,253.641632 
	C597.250671,254.079651 605.168579,253.633835 613.553833,253.999695 
	C615.761902,264.352875 615.233826,274.772797 614.860168,285.663574 
	C604.945923,272.756836 592.582520,262.496246 577.060608,255.598877 
z"/>
<path fill="#0CAFDC" opacity="1.000000" stroke="none" 
	d="
M134.278198,403.428223 
	C139.586441,402.984558 144.814026,402.990875 150.506927,402.995605 
	C152.186707,403.952179 152.395264,405.410828 152.951935,407.167969 
	C153.679352,411.024078 153.345078,414.500946 153.473785,418.398285 
	C153.255157,422.664215 153.350098,426.564484 150.594620,430.183167 
	C145.800919,432.402618 141.246796,433.182007 136.194687,431.247681 
	C134.545837,421.961670 134.823364,412.891785 134.278198,403.428223 
z"/>
<path fill="#1CB5DF" opacity="1.000000" stroke="none" 
	d="
M135.758331,431.324585 
	C140.424789,431.239929 144.923019,430.929504 149.822800,430.036743 
	C152.156036,433.900208 149.498627,436.905151 148.239380,440.534790 
	C146.440826,444.469177 147.653885,447.123901 150.475372,449.659515 
	C153.526489,452.401459 157.099655,454.672455 159.033905,458.694824 
	C152.482727,459.009918 146.096771,459.011261 139.219086,459.026733 
	C135.948837,450.131256 136.282379,440.869080 135.758331,431.324585 
z"/>
<path fill="#A09CCE" opacity="1.000000" stroke="none" 
	d="
M139.289001,368.477905 
	C137.704422,368.905090 136.434021,368.969421 134.786850,369.071289 
	C128.773727,366.850037 122.635025,367.351318 116.437675,365.825317 
	C113.396057,361.663879 114.569069,357.305298 115.286865,352.576843 
	C116.120544,351.381256 116.984940,351.044952 118.361824,350.748810 
	C123.037842,350.110809 127.118164,351.545349 131.755829,351.566101 
	C134.704773,351.557190 137.264481,351.241241 139.587524,353.546814 
	C140.821304,358.690704 141.093002,363.417694 139.289001,368.477905 
z"/>
<path fill="#B296C4" opacity="1.000000" stroke="none" 
	d="
M115.713783,351.738159 
	C116.015480,356.317230 116.013184,360.585968 116.018433,365.296265 
	C113.316849,365.463776 110.607719,365.189667 107.480087,364.895233 
	C101.137733,362.915955 94.869286,361.938171 89.183914,358.405060 
	C88.366272,354.406311 87.527901,350.639008 91.013870,347.353088 
	C95.574959,347.516724 99.316528,349.869476 103.991943,349.615540 
	C108.182266,349.594421 111.866623,350.084259 115.713783,351.738159 
z"/>
<path fill="#016996" opacity="1.000000" stroke="none" 
	d="
M242.533447,284.735077 
	C238.821793,292.412476 234.912216,299.899475 230.790909,307.268036 
	C229.502090,309.572296 227.571808,311.320251 224.849365,312.254883 
	C212.796844,316.392700 200.797073,320.684479 188.785645,324.941528 
	C186.606216,325.713928 184.461563,326.584442 182.062866,327.685120 
	C179.979813,329.733185 177.702530,330.053497 174.922424,329.799805 
	C174.116791,329.461090 173.772476,329.132874 173.513794,328.334106 
	C173.595383,327.559814 173.806793,327.181549 174.353622,326.661163 
	C174.693222,326.086823 175.184570,326.084595 175.282791,325.724152 
	C175.304306,325.645203 175.112701,325.596039 174.999039,325.655975 
	C174.409363,325.966980 175.209183,325.481995 174.732361,326.294891 
	C174.200134,326.788849 173.891708,327.082977 173.287552,327.565063 
	C170.549164,328.574646 168.463638,327.476288 166.307816,326.565735 
	C156.042923,322.230286 146.007050,317.381592 135.440430,312.768066 
	C134.929520,312.360626 134.750748,312.164093 134.423340,311.593597 
	C134.247787,310.950745 134.220871,310.681824 134.261566,310.012268 
	C134.451126,309.370026 134.573059,309.128387 135.008606,308.629974 
	C139.588882,306.670197 144.145859,306.752563 148.992233,306.227448 
	C153.548447,307.438690 157.097794,309.982300 161.427307,311.718079 
	C165.419434,313.292755 168.927643,312.502930 172.465561,311.343018 
	C175.128830,310.469818 177.694748,309.179077 180.959595,309.228638 
	C182.080688,309.584259 182.514481,310.148041 182.777405,311.258850 
	C182.802383,311.851318 182.781479,312.086792 182.661240,312.656189 
	C182.459030,313.192017 182.356155,313.393921 181.892181,314.142456 
	C180.904358,315.532532 180.445770,316.494202 179.509155,317.487091 
	C179.299210,317.706696 178.989731,318.044861 178.898560,318.177979 
	C178.807373,318.311096 178.573502,318.371979 178.712189,318.373444 
	C178.922943,318.121765 179.061920,317.911438 179.482025,317.569641 
	C179.866074,317.285492 180.035904,317.175690 180.503830,316.943970 
	C190.739777,312.491516 199.724380,306.411865 209.217514,301.263763 
	C217.985428,296.508911 226.594421,291.449860 235.303864,286.580170 
	C237.417374,285.398438 239.500580,283.716064 242.533447,284.735077 
z"/>
<path fill="#3CBDE1" opacity="1.000000" stroke="none" 
	d="
M242.098663,263.299194 
	C243.106567,265.869110 244.107529,268.292267 245.212799,271.090759 
	C244.177155,274.047638 241.609695,274.502869 239.364319,275.333038 
	C235.535263,276.748810 231.566360,277.790588 227.568176,279.823242 
	C217.786835,282.674774 208.584854,286.086792 199.256332,289.112122 
	C195.865738,290.211700 193.633301,292.493927 192.100479,295.626648 
	C191.226913,297.412018 190.443192,299.266205 188.762772,300.999451 
	C188.233597,301.351990 188.000565,301.460266 187.385895,301.629700 
	C184.171341,301.175232 181.604752,300.171448 179.774841,297.395264 
	C183.141876,290.963623 182.388214,288.726746 176.089447,285.984222 
	C174.608215,285.339294 172.822144,285.230255 171.785095,283.320038 
	C176.899200,277.636200 183.988556,275.851379 190.360611,272.768311 
	C191.700333,272.120087 193.186218,271.785583 194.981201,271.201050 
	C199.450500,270.441467 203.173721,272.450256 207.175430,272.698181 
	C219.173737,273.441650 229.896774,270.175385 239.924835,262.982727 
	C240.561325,262.776703 240.827316,262.731232 241.465210,262.845581 
	C241.837112,263.005402 242.091705,263.152374 242.098663,263.299194 
z"/>
<path fill="#08508A" opacity="1.000000" stroke="none" 
	d="
M186.726074,301.398804 
	C187.007828,301.197235 187.472702,301.090912 187.705124,301.037659 
	C201.186096,294.372009 214.100250,287.162018 226.859787,279.013123 
	C232.592392,275.506104 239.050735,274.684113 245.019348,271.652008 
	C251.474609,270.810913 248.732361,273.987732 247.219452,276.747742 
	C227.041016,288.338501 207.188293,299.793579 187.036346,310.715759 
	C185.578018,311.506134 184.279449,312.576660 182.346848,313.061218 
	C181.991913,312.202332 181.994003,311.432983 181.997925,310.278900 
	C181.670502,309.183472 181.911667,308.539673 182.415161,307.608276 
	C184.133057,305.578430 184.805466,303.263885 186.726074,301.398804 
z"/>
<path fill="#075D90" opacity="1.000000" stroke="none" 
	d="
M181.989227,312.982727 
	C184.206116,309.495697 188.297348,308.970673 191.502686,307.115173 
	C208.111618,297.500610 224.871826,288.147156 241.596146,278.732605 
	C243.025208,277.928162 244.446960,276.990753 246.574280,276.990448 
	C245.694153,279.445099 244.441696,281.912476 243.001160,284.675537 
	C235.944473,286.286530 230.595779,290.744446 224.687988,293.965057 
	C211.171494,301.333527 197.897888,309.146942 184.494720,316.724945 
	C183.373276,317.359039 182.018860,317.580994 180.397537,318.004395 
	C179.405151,316.743774 180.717285,315.795807 180.785309,314.304443 
	C180.978424,314.001343 180.993927,313.994995 180.996368,313.986908 
	C181.167389,313.822479 181.335968,313.666107 181.738708,313.256470 
	C181.972870,313.003235 181.988647,312.993713 181.989227,312.982727 
z"/>
<path fill="#CCC1E2" opacity="1.000000" stroke="none" 
	d="
M190.756912,346.945923 
	C196.425919,355.784058 201.723511,364.861786 207.104797,374.269470 
	C206.080643,379.950287 202.330460,382.759155 197.187149,384.489563 
	C192.502731,379.231445 188.827042,373.765228 188.023407,366.455322 
	C188.935120,362.119629 188.351212,358.143921 188.543869,354.199463 
	C188.664627,351.726959 188.591904,349.214294 190.756912,346.945923 
z"/>
<path fill="#C7CBED" opacity="1.000000" stroke="none" 
	d="
M214.516876,411.230408 
	C212.674408,408.027435 211.202194,405.085358 209.448059,401.939087 
	C206.306183,400.022736 204.179138,397.740265 203.486618,394.007996 
	C206.535904,390.543915 211.289551,390.791199 214.783661,387.879089 
	C218.909515,392.631165 221.404724,398.635132 227.911011,401.293152 
	C229.856262,404.405701 229.661041,407.507690 228.993195,411.087555 
	C225.161774,415.143127 221.227463,415.132233 214.516876,411.230408 
z"/>
<path fill="#CFBADA" opacity="1.000000" stroke="none" 
	d="
M191.067841,346.367615 
	C189.369171,351.348328 190.171021,356.192963 189.998383,360.960754 
	C189.933105,362.763489 190.295731,364.624146 189.130066,366.694275 
	C186.291870,366.921295 186.131302,364.589752 185.490387,362.843170 
	C184.405350,359.886322 183.111572,356.996277 182.241364,353.560852 
	C181.550934,351.151398 180.725815,349.163910 180.287201,347.092651 
	C179.073807,341.362640 176.477341,336.722534 170.635956,333.924011 
	C169.802536,332.248749 169.783142,330.888916 170.556824,329.157104 
	C171.574341,328.262146 172.406265,328.172241 173.669312,328.694153 
	C176.597610,330.176483 178.647537,327.792633 181.434937,327.958313 
	C184.885696,333.983368 187.946518,340.006165 191.067841,346.367615 
z"/>
<path fill="#F0AAAF" opacity="1.000000" stroke="none" 
	d="
M215.092377,387.473999 
	C212.790466,391.994202 208.356522,392.200867 204.215240,393.697388 
	C199.035385,393.338440 196.987961,389.420105 194.699493,385.412659 
	C195.052902,384.329895 195.624603,383.911743 196.740509,383.894348 
	C201.475967,382.367401 203.855270,378.452820 207.037231,374.933014 
	C210.489426,378.345642 212.701004,382.774292 215.092377,387.473999 
z"/>
<path fill="#C3D5F8" opacity="1.000000" stroke="none" 
	d="
M228.341339,412.351074 
	C228.017990,408.861877 228.042053,405.680939 228.108917,402.004272 
	C228.847687,401.705933 229.543655,401.903290 230.595795,402.162231 
	C235.787201,405.020386 241.303757,405.352081 246.891846,406.797119 
	C247.665268,411.723572 246.990356,412.367340 240.155914,413.355042 
	C236.024689,413.146820 232.285141,413.994263 228.341339,412.351074 
z"/>
<path fill="#85E7F6" opacity="1.000000" stroke="none" 
	d="
M242.038437,262.730682 
	C241.837112,263.005402 241.421677,262.968628 241.213226,262.962769 
	C236.116898,259.099854 233.972534,253.111664 229.860001,248.601395 
	C227.568893,246.088684 224.752930,243.839966 223.433029,240.123779 
	C223.593201,238.379669 224.528076,237.394211 225.228394,236.279892 
	C230.131744,228.477463 228.694031,219.621811 221.641998,214.113297 
	C214.797073,208.766556 206.006424,209.419495 199.609634,215.756516 
	C198.672623,216.684753 197.908798,217.795609 196.379395,218.593658 
	C194.091553,219.064758 192.467117,218.161591 190.868912,217.322845 
	C183.984070,213.709579 176.908051,210.531906 169.313477,207.589157 
	C168.885147,207.125488 168.762985,206.898041 168.780579,206.309418 
	C184.937012,177.668228 217.581161,171.335678 242.703278,191.816254 
	C248.915176,198.233139 253.995224,205.035126 256.572601,213.785645 
	C258.509064,222.704941 258.844696,231.355118 256.517700,240.398224 
	C253.506790,249.215973 248.937393,256.532593 242.038437,262.730682 
z"/>
<path fill="#607FCC" opacity="1.000000" stroke="none" 
	d="
M168.532379,205.957550 
	C168.945465,206.119537 168.970612,206.290817 169.012543,206.721207 
	C167.883438,213.393311 165.326797,219.507492 164.862793,226.469574 
	C162.042725,230.195267 160.513443,234.099747 159.055832,238.485062 
	C154.856384,240.829025 150.962982,241.358673 146.909012,238.277496 
	C149.888611,231.080399 149.095673,225.233475 144.330154,219.011627 
	C140.486176,213.992966 141.616058,206.895020 140.020081,200.429260 
	C149.624619,200.933212 158.895996,203.395782 168.532379,205.957550 
z"/>
<path fill="#C7CBED" opacity="1.000000" stroke="none" 
	d="
M152.107056,407.234070 
	C151.547028,405.867523 151.341766,404.765991 151.054382,403.329224 
	C150.972275,402.993958 151.083405,403.094910 151.156708,403.078674 
	C152.077545,395.404694 156.099060,389.024994 159.634705,382.473816 
	C160.974426,379.991425 162.403503,377.555267 163.634216,375.013672 
	C166.822891,368.428589 165.916412,364.460724 160.210495,359.747314 
	C158.569382,358.391632 156.450211,357.532684 155.507721,354.983276 
	C155.845428,351.413330 154.986725,348.009033 157.434647,344.858154 
	C162.296799,343.402832 165.984726,345.852661 170.190674,347.744659 
	C170.816589,348.575653 171.041275,349.128998 171.257965,350.168457 
	C171.798859,363.842773 171.381760,377.070282 171.561203,390.294098 
	C171.598969,393.077271 171.183441,395.909943 172.348907,399.054962 
	C172.866440,400.406036 172.851395,401.324493 172.113251,402.565125 
	C171.028107,405.044403 170.269775,407.184204 169.303040,409.600159 
	C162.948578,413.294464 157.767700,409.959534 152.107056,407.234070 
z"/>
<path fill="#01ABDA" opacity="1.000000" stroke="none" 
	d="
M172.187439,403.075928 
	C171.880508,402.187744 171.974609,401.470886 172.069153,400.392212 
	C173.099152,390.195953 176.999176,381.241943 180.904083,371.969330 
	C182.300278,371.321045 183.264587,371.714264 183.793777,372.598511 
	C186.536087,377.180756 190.454468,380.705383 194.292923,384.743469 
	C197.369568,387.989197 200.349243,390.885376 203.653656,393.878418 
	C205.651367,396.347198 207.324371,398.719086 209.081757,401.412903 
	C208.470978,403.223267 207.343262,404.003845 205.659286,403.992920 
	C195.092651,403.924225 184.525879,403.878967 173.959442,403.790558 
	C173.500961,403.786743 173.045395,403.436249 172.187439,403.075928 
z"/>
<path fill="#EFA1AC" opacity="1.000000" stroke="none" 
	d="
M151.745911,407.436890 
	C157.329163,407.417297 162.301163,411.226013 168.643463,409.902283 
	C168.318909,412.954651 167.543182,416.032990 166.661438,419.490295 
	C165.981689,421.429596 165.407944,422.989899 164.672852,424.823273 
	C159.527252,426.623352 154.985992,424.643860 152.403259,419.463867 
	C152.119110,415.346954 151.929321,411.625824 151.745911,407.436890 
z"/>
<path fill="#CE8CB2" opacity="1.000000" stroke="none" 
	d="
M227.634125,412.192688 
	C231.663254,412.080933 235.332550,412.119080 239.452484,412.215149 
	C240.980835,414.359100 239.461044,414.408356 238.121292,414.460999 
	C235.684113,414.556671 233.242355,414.424316 230.405182,414.698364 
	C227.475754,415.222107 224.936707,415.532928 222.415833,415.952759 
	C218.591232,416.589691 215.796707,415.356934 214.203339,411.323120 
	C218.547318,411.189972 222.664871,414.117615 227.634125,412.192688 
z"/>
<path fill="#B296C4" opacity="1.000000" stroke="none" 
	d="
M230.463806,414.927948 
	C232.925156,412.574249 236.846100,415.450500 239.815704,412.624268 
	C243.016296,411.933838 246.620407,412.388062 247.157059,407.431335 
	C250.811478,407.997223 249.758331,410.035950 248.023605,411.688080 
	C245.390564,414.195740 241.987488,414.873718 238.416275,414.858795 
	C235.918060,414.848328 233.419418,414.944733 230.463806,414.927948 
z"/>
<path fill="#C7CBED" opacity="1.000000" stroke="none" 
	d="
M152.224472,419.477356 
	C155.108017,422.913300 159.034332,424.622589 164.075043,425.071777 
	C164.287323,426.444427 164.063156,427.792511 163.813568,429.546539 
	C162.734009,432.690277 161.694458,435.430664 162.462097,438.778320 
	C162.875153,441.196686 162.843475,443.354370 164.128357,445.625549 
	C165.424896,448.473755 166.567322,450.956146 167.924164,453.714111 
	C169.635864,456.470459 171.133148,458.951233 172.695786,461.760040 
	C169.617813,465.727112 166.901550,463.559448 163.902313,461.211975 
	C157.924011,454.705566 150.859604,449.619293 147.026001,441.373138 
	C147.775101,437.532104 149.965576,434.492981 150.241272,430.445923 
	C151.460510,426.768127 152.008560,423.365814 152.224472,419.477356 
z"/>
<path fill="#B296C4" opacity="1.000000" stroke="none" 
	d="
M163.520538,460.044067 
	C166.327332,461.979401 168.733307,463.913330 172.447296,462.239380 
	C172.849533,462.236694 172.937912,462.385254 173.154907,462.759521 
	C170.894165,467.063812 168.078705,466.991089 163.242584,462.438416 
	C162.416077,461.435913 162.410919,460.739319 163.520538,460.044067 
z"/>
<path fill="#CE8CB2" opacity="1.000000" stroke="none" 
	d="
M163.782318,459.728027 
	C163.632507,460.528992 163.339218,461.027954 163.058014,461.836731 
	C161.876205,461.176575 160.682312,460.206604 159.178543,459.122620 
	C155.758606,456.148071 152.795258,453.102936 149.495590,450.481079 
	C146.430389,448.045532 145.158447,445.315613 146.730530,441.283966 
	C152.015411,447.634216 157.781723,453.571198 163.782318,459.728027 
z"/>
<path fill="#62397E" opacity="1.000000" stroke="none" 
	d="
M40.298828,280.596985 
	C35.242172,281.090179 32.035751,283.702759 29.674458,287.633820 
	C29.028276,288.709564 28.388268,290.387634 26.717768,289.283936 
	C25.295593,288.344299 25.967169,286.914978 26.654926,285.732117 
	C29.491846,280.852753 33.627701,277.809143 39.631195,276.796967 
	C47.091713,276.478577 52.977833,278.776428 56.853767,284.998444 
	C57.755787,286.446472 59.370152,288.503265 57.335121,289.766968 
	C55.314217,291.021942 54.757496,288.452545 53.957680,287.187012 
	C50.840065,282.253906 46.364292,280.113525 40.298828,280.596985 
z"/>
<path fill="#62397E" opacity="1.000000" stroke="none" 
	d="
M39.286224,287.693420 
	C37.147705,288.238464 36.300514,289.756317 35.283932,291.045410 
	C34.588356,291.927490 33.681915,292.464600 32.715481,291.884247 
	C31.421808,291.107330 31.859497,289.843109 32.424076,288.808624 
	C33.950050,286.012726 36.478397,284.494537 39.712807,283.381042 
	C44.754673,283.002136 48.748505,284.464081 51.429111,288.600098 
	C52.227772,289.832397 53.156673,291.369232 51.435368,292.477966 
	C49.798836,293.532135 49.203808,291.880035 48.472359,290.848969 
	C46.262798,287.734436 43.457558,286.186676 39.286224,287.693420 
z"/>
<path fill="#62397E" opacity="1.000000" stroke="none" 
	d="
M40.438538,296.879456 
	C38.841545,294.885803 38.414497,293.061615 40.982956,291.356232 
	C43.130322,291.432953 44.994194,292.063599 44.816998,294.400909 
	C44.641285,296.718719 42.915688,297.282654 40.438538,296.879456 
z"/>
<path fill="#F0AAAF" opacity="1.000000" stroke="none" 
	d="
M150.413971,307.329773 
	C145.413330,307.866516 140.782303,308.521637 135.755798,309.273804 
	C132.217758,310.921631 128.947052,311.720398 125.041748,310.939545 
	C121.245201,306.826599 116.328903,305.559998 111.759537,303.650208 
	C103.620911,300.248566 95.592743,296.566132 86.747391,293.940399 
	C84.294312,292.816589 83.910339,290.817413 83.314507,288.511902 
	C81.387070,284.008911 79.624283,279.840027 77.788589,275.293396 
	C80.595512,272.795288 84.184006,273.872925 87.690170,272.724060 
	C94.665863,271.793671 94.792824,271.996674 97.265656,278.032257 
	C99.582649,283.687469 101.240677,289.665009 105.264557,294.889740 
	C107.805435,296.622528 110.330536,296.716003 113.294861,296.631927 
	C115.954239,296.545410 118.209549,296.518677 120.904457,296.574738 
	C129.151489,296.545441 136.981827,295.978363 145.162689,297.538391 
	C147.863998,297.496979 150.128311,297.573578 152.792191,297.554565 
	C154.334930,297.544403 155.640930,297.972992 156.591019,297.397461 
	C160.507324,295.025055 164.272934,295.549286 168.427521,297.629456 
	C170.611496,297.752014 172.449020,297.715973 174.170700,298.403656 
	C177.393799,299.691040 179.091507,301.662140 177.066742,305.594604 
	C176.325134,310.038910 173.865646,311.396698 169.965698,310.643097 
	C167.883820,310.240814 165.801422,309.854401 163.386536,309.138489 
	C159.061127,307.503662 154.861786,307.941803 150.413971,307.329773 
z"/>
<path fill="#152575" opacity="1.000000" stroke="none" 
	d="
M89.250198,273.565430 
	C85.645851,275.216156 82.163086,275.176910 78.186562,274.911743 
	C73.701576,271.867767 74.309830,266.971008 73.673729,262.955780 
	C72.608734,256.233246 71.663452,249.117737 76.130775,242.898315 
	C76.611191,242.229462 76.990356,241.340256 77.650246,240.971191 
	C83.077530,237.935699 85.718788,232.824020 87.714394,227.338043 
	C88.725121,224.559570 90.286911,223.306961 93.606781,223.883972 
	C95.930077,226.338409 94.625252,230.248520 98.101486,232.276993 
	C98.470406,232.795853 98.594597,233.023270 98.835281,233.627869 
	C98.818596,240.595123 96.397316,246.707947 94.847412,252.985962 
	C93.174065,259.764038 91.416084,266.530426 89.250198,273.565430 
z"/>
<path fill="#CE8CB2" opacity="1.000000" stroke="none" 
	d="
M92.113152,347.636780 
	C89.616158,348.314301 90.090797,350.158813 90.013855,351.704651 
	C89.919022,353.610016 90.350990,355.582550 89.127213,357.750549 
	C78.080223,353.286133 73.969398,343.589691 71.047592,333.057465 
	C69.510384,327.516327 69.750183,322.004944 71.744370,316.257385 
	C74.990921,318.882782 78.374802,320.938232 83.051712,321.109772 
	C85.398369,321.703369 87.509521,321.521423 89.772522,322.505920 
	C90.987625,323.941162 90.786995,325.297211 90.312508,326.520905 
	C87.502838,333.766846 87.755722,340.697571 92.113152,347.636780 
z"/>
<path fill="#11337A" opacity="1.000000" stroke="none" 
	d="
M83.303513,321.902008 
	C78.440971,322.176392 74.354996,321.348236 72.131813,316.305481 
	C73.964561,310.344940 76.912750,305.221558 80.175766,300.284790 
	C82.458824,296.830597 83.590393,293.156799 83.154480,288.601624 
	C84.064514,289.602570 84.979179,291.027313 86.089111,292.719177 
	C89.047615,295.193939 90.753960,297.929779 90.462692,301.966614 
	C87.691673,306.082306 87.416908,310.627930 86.134972,314.835541 
	C85.424820,317.166412 85.301407,319.713226 83.303513,321.902008 
z"/>
<path fill="#08508A" opacity="1.000000" stroke="none" 
	d="
M98.415024,232.581329 
	C93.393105,231.936188 93.892715,228.283157 94.013290,224.397949 
	C95.082306,223.973160 96.147659,223.976501 97.614914,223.973846 
	C98.326927,224.170746 98.637032,224.373642 99.122055,224.795471 
	C100.568352,227.554535 99.446175,229.892914 98.415024,232.581329 
z"/>
<path fill="#617FC4" opacity="1.000000" stroke="none" 
	d="
M146.455444,238.086456 
	C150.451431,239.620361 154.229034,239.382141 158.421768,238.062195 
	C161.603210,241.603088 163.636398,246.013733 168.992767,247.391968 
	C171.107315,249.144806 172.130630,251.126175 172.392426,253.860443 
	C171.510773,256.083405 170.131241,257.562317 169.036453,259.228119 
	C166.044571,263.780396 164.644928,268.387726 167.018234,273.803955 
	C168.256058,276.628815 169.204437,279.766083 167.978851,283.299255 
	C166.945541,284.019226 166.133255,284.219147 164.849243,284.346558 
	C158.420990,284.655090 152.427475,284.456848 145.991974,284.470581 
	C144.219742,284.372681 142.887604,284.479492 141.559601,284.369812 
	C135.809158,283.894867 134.214310,282.035645 133.289459,274.274841 
	C133.997208,271.803589 135.948822,271.546387 137.587860,271.014496 
	C140.337540,270.122131 142.355072,268.270966 144.712708,266.204102 
	C147.774719,260.927002 148.107834,255.728516 145.233688,250.598862 
	C142.777100,246.214417 143.116959,242.183304 146.455444,238.086456 
z"/>
<path fill="#08508A" opacity="1.000000" stroke="none" 
	d="
M113.302124,297.493073 
	C110.459412,297.641571 107.790718,298.502197 105.192932,296.486206 
	C103.777534,294.281158 103.236282,292.163208 103.353584,289.492676 
	C106.457031,283.110168 107.445770,276.499115 109.274963,270.154388 
	C112.483223,259.026245 114.383568,247.549149 118.416702,236.250366 
	C122.461403,236.112518 126.361687,239.406876 126.950195,243.280609 
	C127.192299,244.874176 127.600853,246.499130 127.284485,248.530487 
	C127.088448,249.376877 127.048645,249.845627 126.976158,250.665771 
	C123.400177,260.874695 121.667183,271.220886 118.770592,281.248413 
	C117.217941,286.623413 116.677116,292.348480 113.302124,297.493073 
z"/>
<path fill="#075D90" opacity="1.000000" stroke="none" 
	d="
M113.413300,297.844482 
	C116.325081,284.879242 119.632095,272.006042 122.998863,259.148468 
	C123.730919,256.352814 124.062088,253.363129 126.590622,251.077499 
	C127.334747,253.407211 127.726036,255.797241 128.153809,258.598633 
	C131.210037,262.070374 130.199997,265.979340 130.428741,270.046936 
	C130.566971,276.399261 127.812439,281.480682 125.471352,287.095612 
	C123.529533,290.670929 123.339340,294.507019 120.957161,297.786346 
	C118.344833,297.948517 116.087402,297.945312 113.413300,297.844482 
z"/>
<path fill="#F6BDB5" opacity="1.000000" stroke="none" 
	d="
M98.128784,232.918579 
	C96.805496,230.304047 98.463394,228.139114 99.229630,225.425171 
	C100.180031,223.572693 100.974640,222.246567 99.362946,220.637909 
	C97.362083,218.640808 97.922668,215.984055 98.092148,213.531494 
	C98.197044,212.013718 98.764091,210.507935 100.474121,210.096954 
	C102.398102,209.634521 102.894234,211.105850 103.624680,212.505203 
	C106.099167,217.245728 108.952454,214.574615 111.870773,212.444962 
	C112.257782,211.950775 112.492676,211.774933 113.167862,211.598694 
	C116.253044,212.688446 116.315239,215.074005 116.379761,217.361206 
	C116.504150,221.770309 116.491089,226.182755 116.331863,231.011932 
	C116.264893,231.703568 116.228317,231.976608 116.084572,232.636292 
	C115.864639,233.255157 115.751892,233.487396 115.393997,234.005386 
	C110.765663,236.302246 108.868019,232.622345 106.397408,230.439346 
	C107.443710,232.402145 108.887848,234.213989 109.179756,236.871979 
	C108.860359,237.344482 108.656181,237.476990 108.095230,237.706909 
	C104.171211,237.422211 100.827797,236.548965 98.259064,233.240723 
	C98.073532,232.912689 98.113541,232.936279 98.128784,232.918579 
z"/>
<path fill="#4D1C52" opacity="1.000000" stroke="none" 
	d="
M115.211639,234.294556 
	C115.009842,233.940308 114.979218,233.767487 114.989281,233.334595 
	C121.242783,227.003250 122.525314,219.422546 121.720215,211.205322 
	C121.579353,209.767670 121.983650,207.957733 120.266396,207.304611 
	C118.601158,206.671265 117.556877,208.093704 116.527397,209.150421 
	C115.612190,210.089859 114.905327,211.266129 113.215515,211.803909 
	C112.891571,211.940521 112.455200,212.023239 112.239044,212.074921 
	C112.626823,208.735641 114.293449,205.977722 116.870750,203.700912 
	C119.804092,201.109573 122.968674,202.330048 125.651535,203.661606 
	C128.003937,204.829117 126.925674,207.388840 126.349541,209.482880 
	C125.078293,214.103287 126.400406,218.551804 128.429169,222.457001 
	C131.867661,229.075821 131.188812,235.496918 129.119751,242.154999 
	C128.487000,244.191208 128.128357,246.312607 127.386208,248.651550 
	C126.799568,243.375046 124.009819,239.259369 119.371025,235.921295 
	C119.038269,235.825592 118.541458,235.832977 118.541458,235.832977 
	C118.541458,235.832977 118.077293,235.655838 117.859566,235.543488 
	C117.356766,235.273804 117.062119,235.137115 116.522827,234.948700 
	C115.965080,234.790436 115.663429,234.656982 115.211639,234.294556 
z"/>
<path fill="#4D1C52" opacity="1.000000" stroke="none" 
	d="
M129.392426,271.461700 
	C128.732071,267.401276 129.746857,263.489441 128.156570,259.423889 
	C129.677765,258.995453 130.596237,259.988159 131.455856,260.969177 
	C134.960434,264.968597 139.850189,264.863586 144.784698,265.750793 
	C143.361313,271.105804 139.181488,272.328888 134.151077,272.871002 
	C132.085968,273.503937 130.692200,273.090881 129.392426,271.461700 
z"/>
<path fill="#F1F9FC" opacity="1.000000" stroke="none" 
	d="
M58.302231,221.007751 
	C59.155613,219.172134 60.263645,218.365784 61.625668,219.933670 
	C62.000366,220.365021 61.994919,221.686829 61.616127,222.111969 
	C60.245094,223.650681 59.136017,222.871307 58.302231,221.007751 
z"/>
<path fill="#F1F9FC" opacity="1.000000" stroke="none" 
	d="
M50.010269,221.015137 
	C50.570175,218.897629 51.652012,218.643845 53.002750,219.738312 
	C53.942348,220.499603 53.937675,221.533127 53.007702,222.285751 
	C51.673367,223.365662 50.571205,223.146088 50.010269,221.015137 
z"/>
<path fill="#F1F9FC" opacity="1.000000" stroke="none" 
	d="
M43.951813,219.262909 
	C45.259560,220.608521 45.518028,221.864410 43.964581,222.708694 
	C42.944416,223.263168 41.898254,222.706772 41.543827,221.661087 
	C40.945786,219.896622 42.080139,219.293152 43.951813,219.262909 
z"/>
<path fill="#81A7DF" opacity="1.000000" stroke="none" 
	d="
M155.542755,354.750854 
	C158.266174,356.872681 160.813980,358.481506 162.912827,360.546600 
	C167.643784,365.201447 168.117294,368.911987 165.077179,374.859985 
	C160.411758,383.987854 154.851349,392.680603 151.450836,402.795288 
	C150.275452,394.981628 153.657104,387.909882 156.685394,380.848877 
	C159.902557,373.347534 160.116776,373.439423 152.320129,371.079834 
	C149.330444,366.061646 150.474640,360.996918 151.331039,355.536560 
	C152.609634,354.053711 153.836441,353.978546 155.542755,354.750854 
z"/>
<path fill="#8DA2D8" opacity="1.000000" stroke="none" 
	d="
M151.960556,354.506287 
	C152.000519,359.967102 151.998230,364.975769 151.991394,370.442322 
	C147.785919,371.120026 143.792816,369.944672 139.364288,368.959290 
	C138.982498,364.180023 138.990143,359.519287 138.999542,354.387512 
	C140.161392,352.688934 141.706406,352.699310 143.671677,352.597107 
	C146.795837,352.686676 149.620453,351.969330 151.960556,354.506287 
z"/>
<path fill="#DCA8C5" opacity="1.000000" stroke="none" 
	d="
M116.391312,352.035339 
	C112.302925,351.698364 108.588066,351.348206 104.439346,350.988464 
	C101.224335,346.324707 102.688065,341.210297 102.591034,336.319153 
	C102.371750,325.265076 103.327377,324.695557 113.887489,328.235962 
	C114.993088,328.606598 116.108887,328.951172 117.591194,329.636169 
	C118.902199,330.170715 119.625847,330.742859 120.445442,331.888794 
	C120.466377,338.624725 121.173927,345.005981 119.283600,351.614929 
	C118.260498,351.993073 117.512665,352.007599 116.391312,352.035339 
z"/>
<path fill="#D6B2D1" opacity="1.000000" stroke="none" 
	d="
M119.448120,351.995331 
	C119.310120,345.614105 118.183136,339.176514 120.002617,332.469116 
	C124.305428,330.414612 127.927658,333.019470 132.188751,334.111084 
	C133.013992,334.692078 133.366486,335.141266 133.736450,336.094147 
	C133.128006,341.735291 134.252335,347.107086 132.267517,352.590393 
	C127.959389,352.630127 123.923653,352.321106 119.448120,351.995331 
z"/>
<path fill="#CFBADA" opacity="1.000000" stroke="none" 
	d="
M132.411926,352.960144 
	C132.373886,347.580109 131.132156,342.130402 132.952545,336.435913 
	C137.873764,334.643738 141.769791,336.600037 145.578400,339.987488 
	C146.669174,344.772766 147.201233,349.147644 144.307861,353.557617 
	C142.612961,353.900177 141.224258,353.921051 139.418427,353.929260 
	C137.145569,352.273132 134.882339,353.318817 132.411926,352.960144 
z"/>
<path fill="#E19BB8" opacity="1.000000" stroke="none" 
	d="
M118.258247,330.774414 
	C114.374077,329.963135 110.710609,329.043823 107.142685,327.841064 
	C104.603020,326.985016 103.943893,327.843079 103.974220,330.274017 
	C104.056442,336.863861 104.001595,343.455444 104.003296,350.512604 
	C99.986855,351.120483 96.214249,350.214691 92.339691,348.166504 
	C84.587730,340.563293 86.739395,332.278320 89.963692,323.534882 
	C90.524887,322.358551 91.337311,322.055054 92.625519,321.767365 
	C96.693771,321.401154 100.384483,321.896606 104.405289,320.943237 
	C109.035461,320.629883 113.180817,319.935089 117.708847,318.894684 
	C121.964592,318.303894 125.660019,318.949493 129.659637,320.365234 
	C132.150284,323.529266 131.169495,327.029297 131.727539,330.631836 
	C128.817993,335.045898 126.221733,332.041138 123.805016,330.507324 
	C121.869026,329.278595 120.281097,327.797150 118.258247,330.774414 
z"/>
<path fill="#A7DEEF" opacity="1.000000" stroke="none" 
	d="
M130.337097,321.328918 
	C126.268394,320.703857 122.556580,320.331238 118.404968,319.927002 
	C115.783409,316.997314 116.421173,313.856506 117.426231,310.291260 
	C119.396034,308.554260 121.247658,308.500336 123.589645,309.567200 
	C127.555244,310.501404 130.978851,309.091095 134.930588,309.247192 
	C135.306458,309.533112 135.252594,309.695404 135.134064,310.105927 
	C134.914841,310.449310 134.760269,310.544464 134.820496,310.806946 
	C135.035278,310.974243 134.928101,311.408569 134.995575,311.621826 
	C137.613831,314.606812 142.039886,314.282532 144.413483,317.845642 
	C144.426239,319.622772 144.119400,320.935516 142.970734,322.359009 
	C138.526245,323.739532 134.619949,322.547943 130.337097,321.328918 
z"/>
<path fill="#152575" opacity="1.000000" stroke="none" 
	d="
M162.679062,308.156982 
	C165.387527,308.391418 167.877670,308.498505 170.115555,309.305298 
	C173.773392,310.624023 175.370789,309.154846 176.051926,305.407623 
	C178.992935,303.668243 180.842056,305.551910 182.892181,307.611359 
	C182.764557,308.445251 182.496384,308.921814 182.113983,309.646301 
	C178.109985,311.038757 174.208237,312.144531 170.334412,313.340668 
	C167.460388,314.228119 164.626144,314.520081 161.425003,313.100830 
	C159.623749,310.868591 161.302399,309.694946 162.679062,308.156982 
z"/>
<path fill="#0C4283" opacity="1.000000" stroke="none" 
	d="
M144.328903,318.161682 
	C141.540451,315.292877 137.419510,315.388489 135.019714,312.204163 
	C143.705643,314.325470 151.371521,319.111908 159.702606,322.315063 
	C164.126938,324.016113 168.058044,327.210327 173.600204,327.010834 
	C174.044113,327.453400 174.042297,327.869537 174.045105,328.598083 
	C173.285553,328.926239 172.521378,328.942017 171.382217,329.026978 
	C168.968460,330.345459 167.112717,329.253418 165.387817,328.438354 
	C161.503433,326.602905 157.499802,325.048889 153.269806,323.084045 
	C150.221954,321.269409 147.188187,320.221771 144.328903,318.161682 
z"/>
<path fill="#0C4283" opacity="1.000000" stroke="none" 
	d="
M162.699753,307.761230 
	C163.180191,309.755280 161.357941,310.649780 161.083237,312.580078 
	C157.542282,311.176605 154.017700,309.436676 150.268738,307.454071 
	C154.198196,305.912323 158.309341,306.159515 162.699753,307.761230 
z"/>
<path fill="#08508A" opacity="1.000000" stroke="none" 
	d="
M180.712036,314.187866 
	C180.747498,315.122681 180.516571,316.243988 180.154022,317.689850 
	C180.022415,318.014374 179.539551,318.047791 179.246826,318.007446 
	C179.451279,316.769531 179.948471,315.571991 180.712036,314.187866 
z"/>
<path fill="#08508A" opacity="1.000000" stroke="none" 
	d="
M178.243347,319.837646 
	C178.125870,319.413605 178.300858,318.862518 178.714966,318.139282 
	C178.954071,317.967102 179.005905,318.007782 179.030762,318.031067 
	C178.882339,318.606445 178.709076,319.158539 178.243347,319.837646 
z"/>
<path fill="#08508A" opacity="1.000000" stroke="none" 
	d="
M178.028961,320.029724 
	C177.903259,320.486633 177.752777,320.920380 177.602295,321.354156 
	C176.938492,321.016602 177.237518,320.624542 177.744843,320.098511 
	C177.950897,319.964691 178.004196,320.006592 178.028961,320.029724 
z"/>
<path fill="#0C4283" opacity="1.000000" stroke="none" 
	d="
M175.206329,325.867554 
	C175.107635,325.533508 175.237610,325.084808 175.367569,324.636078 
	C176.074600,324.967010 175.728851,325.361511 175.206329,325.867554 
z"/>
<path fill="#0C4283" opacity="1.000000" stroke="none" 
	d="
M135.016602,310.817719 
	C135.035278,310.974243 134.733139,310.748169 134.733139,310.748169 
	C134.733139,310.748169 134.807877,310.398590 134.938629,310.376343 
	C135.069397,310.354126 134.997940,310.661194 135.016602,310.817719 
z"/>
<path fill="#08508A" opacity="1.000000" stroke="none" 
	d="
M181.750473,313.097076 
	C181.897720,313.333740 181.721512,313.596405 181.221527,313.885071 
	C181.077759,313.650726 181.254181,313.388092 181.750473,313.097076 
z"/>
<path fill="#0C4283" opacity="1.000000" stroke="none" 
	d="
M175.007294,326.009460 
	C174.934341,326.350922 174.759155,326.621460 174.268082,326.934265 
	C174.045929,327.037262 174.004593,327.001862 173.986053,326.981018 
	C174.064194,326.633820 174.249405,326.369476 174.750412,326.074707 
	C174.977661,325.982239 174.998764,325.999237 175.007294,326.009460 
z"/>
<path fill="#61D3ED" opacity="1.000000" stroke="none" 
	d="
M172.083893,254.338287 
	C171.137924,252.229172 170.219254,250.482803 169.155884,248.443069 
	C171.370728,245.847870 175.063614,246.907501 177.163406,244.859131 
	C174.020264,245.595261 170.654205,248.190308 166.760117,245.121399 
	C166.423431,244.345016 166.416000,243.864548 166.694183,243.059296 
	C169.169052,241.295395 171.925400,241.298584 174.416306,240.371368 
	C177.398102,239.261429 180.064529,238.745621 179.739609,234.591843 
	C179.429138,230.622696 177.625214,227.985992 174.000000,226.674011 
	C172.109360,225.989761 170.044617,226.194489 168.075363,226.594009 
	C166.942474,226.823868 165.868805,227.350220 164.348236,227.045792 
	C163.829865,219.999756 165.441406,213.542084 168.736664,207.190155 
	C176.649857,208.275803 183.186005,212.242630 190.013855,215.492615 
	C191.799423,216.342529 193.602097,217.156540 195.766113,218.035950 
	C196.267517,218.296967 196.399704,218.509064 196.579971,219.091675 
	C193.612228,231.140915 197.060287,239.197968 206.523911,242.645981 
	C212.186203,244.709000 217.247314,243.328049 222.333771,239.873474 
	C222.922653,239.686234 223.171677,239.656570 223.720337,239.854279 
	C230.193741,247.045517 236.262848,254.087921 240.864105,262.647217 
	C230.077240,273.055969 217.025772,275.422729 202.796295,273.390533 
	C200.516129,273.064880 198.275085,272.465149 195.614441,271.987976 
	C185.217896,269.289886 177.493073,263.561340 172.083893,254.338287 
z"/>
<path fill="#6683C1" opacity="1.000000" stroke="none" 
	d="
M171.744843,254.124786 
	C178.138672,261.715698 185.636032,267.619598 194.971802,271.717468 
	C187.460403,275.249268 179.769669,278.643250 172.155365,283.036011 
	C170.857498,283.988495 169.790512,284.005188 168.334900,283.336456 
	C166.875137,278.811127 165.496185,274.591522 164.676041,270.265961 
	C163.404083,263.557617 167.420563,258.866974 171.744843,254.124786 
z"/>
<path fill="#0C4283" opacity="1.000000" stroke="none" 
	d="
M226.658905,278.749512 
	C227.182617,281.256104 225.080322,282.064026 223.431290,282.998383 
	C213.332748,288.720306 203.172394,294.333160 193.034149,299.985077 
	C191.694611,300.731842 190.276611,301.124176 188.335693,300.990509 
	C190.898865,292.769257 196.317719,287.694580 205.137100,285.691345 
	C212.328735,284.057831 219.228455,281.139160 226.658905,278.749512 
z"/>
<path fill="#F6BDB5" opacity="1.000000" stroke="none" 
	d="
M167.632324,283.127991 
	C169.022125,283.131958 170.040604,283.185730 171.437988,283.205414 
	C174.679672,284.354828 177.667496,285.307861 180.375336,286.776917 
	C184.253403,288.880859 184.253174,294.308624 180.187469,297.283875 
	C179.344864,297.611938 178.879303,297.673828 178.065201,297.492981 
	C172.641693,295.887634 169.602844,291.152496 164.577454,288.911621 
	C163.711105,287.081512 163.708786,285.568268 164.763718,283.802765 
	C165.789856,283.412903 166.525421,283.295319 167.632324,283.127991 
z"/>
<path fill="#016996" opacity="1.000000" stroke="none" 
	d="
M177.595566,296.732300 
	C178.369705,297.043182 178.780960,297.153229 179.494995,297.354004 
	C182.002121,298.578156 184.206451,299.711639 186.709305,301.021179 
	C186.360580,303.604736 185.400497,305.848877 183.330658,307.818909 
	C180.939285,307.010986 178.845840,306.053314 176.408356,305.062378 
	C173.490036,301.771881 178.501053,304.209534 177.785156,302.051300 
	C176.028854,299.727173 173.098709,299.064850 169.632416,298.641418 
	C171.240631,295.192017 174.221741,295.802490 177.595566,296.732300 
z"/>
<path fill="#8DA2D8" opacity="1.000000" stroke="none" 
	d="
M194.745880,385.015839 
	C189.035202,382.153381 185.355621,377.638519 182.204956,372.159424 
	C181.348190,371.301208 181.009583,370.482971 181.193054,369.694336 
	C182.395828,364.524933 180.964218,359.699554 179.473801,354.475372 
	C180.162155,352.993134 181.042282,352.418365 182.678223,352.760376 
	C184.836227,357.521820 186.627258,362.069916 188.690247,366.850616 
	C189.946472,373.300110 194.139709,377.973724 196.943024,383.707794 
	C196.423584,384.334106 195.762726,384.636414 194.745880,385.015839 
z"/>
<path fill="#D6B2D1" opacity="1.000000" stroke="none" 
	d="
M152.728729,321.720947 
	C158.878113,324.215881 164.587387,326.544556 170.651947,328.984741 
	C171.004364,330.445740 171.001495,331.795258 170.683319,333.862976 
	C166.955780,335.974945 163.428772,335.336914 159.491348,335.108643 
	C156.497238,334.333282 153.730881,334.723907 150.908707,333.272339 
	C149.009705,329.703094 149.334152,326.346130 150.349274,322.560364 
	C151.059143,321.688721 151.627670,321.489685 152.728729,321.720947 
z"/>
<path fill="#A09CCE" opacity="1.000000" stroke="none" 
	d="
M183.029327,352.582825 
	C182.192795,353.247375 181.340393,353.521057 180.172974,353.920349 
	C176.337997,353.791992 173.585327,351.589752 170.281372,350.019897 
	C170.079391,349.328857 170.052338,348.961060 170.000031,348.317535 
	C169.141434,343.576630 169.075180,339.139740 170.741516,334.400513 
	C171.018341,334.044556 171.006226,334.000122 170.999359,333.977539 
	C176.683044,334.439148 179.096664,338.338806 180.536667,343.190460 
	C181.421982,346.173248 182.191788,349.190277 183.029327,352.582825 
z"/>
<path fill="#62397E" opacity="1.000000" stroke="none" 
	d="
M196.290466,219.388031 
	C196.160995,219.042114 196.132767,218.563583 196.134033,218.324234 
	C202.918762,209.650024 210.448120,207.227478 218.713730,210.820358 
	C230.135162,215.785019 232.754425,229.145523 224.174500,239.772400 
	C224.020004,240.081650 223.572662,240.142288 223.351135,240.185516 
	C222.208847,240.018646 221.512329,239.468857 220.719681,238.491684 
	C220.426483,238.014084 220.329514,237.812241 220.123077,237.296112 
	C219.688751,235.987701 219.600891,234.852570 218.160034,234.219742 
	C217.678802,234.002029 217.486053,233.915207 217.004608,233.698044 
	C216.130371,233.311859 215.539963,233.068298 214.627243,232.740601 
	C213.703186,232.317474 213.180923,231.897644 212.596344,231.049805 
	C212.333252,230.280716 212.315323,229.818298 212.481033,229.018463 
	C212.741623,228.394302 212.904633,228.109573 213.101852,227.848770 
	C214.956680,225.395905 217.084595,222.477203 213.228973,220.486725 
	C209.535339,218.579865 208.754410,222.345337 207.317017,225.014740 
	C202.426895,225.544174 199.689056,222.128967 196.290466,219.388031 
z"/>
<path fill="#F1F9FC" opacity="1.000000" stroke="none" 
	d="
M166.796173,244.575470 
	C172.103546,247.321991 176.049026,243.492233 180.684921,242.665222 
	C178.197800,246.687286 174.242813,247.810104 169.415771,248.098892 
	C163.679092,247.120651 160.327148,243.992569 158.910446,238.356186 
	C158.751022,233.732483 160.098541,230.086716 163.770599,227.110687 
	C166.747345,225.614304 169.503113,224.623947 172.600998,225.025055 
	C179.301971,225.892670 184.197006,234.685608 179.854248,238.995483 
	C176.980957,241.847015 172.475616,243.435944 167.466660,242.884888 
	C163.213440,241.508759 162.792068,238.435333 163.129547,234.654755 
	C163.658737,233.177414 164.446259,232.329056 165.351471,231.605957 
	C170.645599,227.376953 174.805740,228.659302 177.316559,235.274094 
	C176.529999,227.860428 172.101227,226.218552 165.069901,231.072174 
	C161.448196,236.131210 161.584473,237.160095 166.796173,244.575470 
z"/>
<path fill="#C3D5F8" opacity="1.000000" stroke="none" 
	d="
M170.070435,350.195251 
	C173.675552,349.864990 176.590195,351.523590 179.563293,353.883057 
	C183.076050,359.416107 184.059555,365.067596 181.982681,371.512146 
	C178.827240,381.112335 175.694321,390.301941 172.315491,399.760925 
	C169.713318,399.005157 169.997253,396.908813 169.998856,394.926849 
	C170.010773,380.182526 170.022583,365.438171 170.070435,350.195251 
z"/>
<path fill="#CCC1E2" opacity="1.000000" stroke="none" 
	d="
M144.428604,353.920349 
	C145.174744,349.628174 145.040863,345.276215 145.002563,340.474945 
	C149.571106,339.096832 153.373718,341.340057 157.610123,343.245880 
	C158.026840,343.724243 158.152512,343.948975 158.154648,344.539673 
	C156.050293,347.873535 157.769730,351.422119 156.223450,354.781128 
	C154.877762,355.026794 153.833344,354.996857 152.395874,354.962677 
	C149.820389,353.192261 147.225342,354.384277 144.428604,353.920349 
z"/>
<path fill="#B296C4" opacity="1.000000" stroke="none" 
	d="
M158.417786,344.940826 
	C158.031128,344.905609 158.018753,344.443329 158.008316,344.212341 
	C157.342133,340.803741 157.223663,337.649017 158.702011,334.233704 
	C162.700516,333.947052 166.397064,333.976227 170.555969,334.024963 
	C170.621719,338.445007 171.778183,342.928131 170.144501,347.656799 
	C166.251312,347.019897 162.527878,345.997986 158.417786,344.940826 
z"/>
<path fill="#11337A" opacity="1.000000" stroke="none" 
	d="
M98.047691,233.330261 
	C101.160767,234.236710 104.248009,235.560715 107.670975,237.042877 
	C109.228310,238.794952 108.344208,240.388443 107.929863,241.931015 
	C105.223351,252.007019 103.093918,262.232574 100.144279,272.242279 
	C99.179581,275.516052 99.893532,278.427765 101.188240,281.376648 
	C102.182411,283.641052 103.654778,285.707367 104.035492,288.609009 
	C104.434044,291.120331 105.352066,293.167023 104.929459,295.828674 
	C102.452019,296.055511 102.397873,293.843689 101.729568,292.284424 
	C99.503899,287.091553 97.091232,281.941071 95.402496,276.569305 
	C94.299019,273.059235 92.760376,272.409546 89.368896,273.894775 
	C89.192848,263.939178 93.658752,254.955063 95.395393,245.354706 
	C96.100822,241.454987 97.136452,237.614990 98.047691,233.330261 
z"/>
<path fill="#EFA1AC" opacity="1.000000" stroke="none" 
	d="
M123.984146,309.482422 
	C122.254654,309.922821 120.518936,310.005219 118.353134,310.150085 
	C114.951469,312.224670 111.583046,311.208893 107.949944,311.438599 
	C104.132477,311.550873 100.875122,310.545929 97.125259,310.226013 
	C93.020943,308.996429 90.796951,306.538727 90.270103,302.292328 
	C89.062195,299.148254 87.753777,296.395782 86.364868,293.314758 
	C94.275215,293.883148 101.027222,298.312012 108.461632,300.803650 
	C112.186470,302.052032 115.815300,303.635742 119.375038,305.307404 
	C121.169060,306.149902 123.758255,306.288391 123.984146,309.482422 
z"/>
<path fill="#A7DEEF" opacity="1.000000" stroke="none" 
	d="
M121.100136,298.004486 
	C121.307869,294.404175 122.414856,290.985382 124.080856,287.364777 
	C124.429085,287.050781 124.693840,286.997375 124.740128,287.074707 
	C128.893356,294.014984 135.388596,293.013824 142.229080,292.207947 
	C144.971680,293.363129 146.279510,295.193756 146.384277,298.161682 
	C138.036804,298.377258 129.817413,298.217255 121.100136,298.004486 
z"/>
<path fill="#3CBDE1" opacity="1.000000" stroke="none" 
	d="
M177.863464,296.618805 
	C175.175995,296.835724 172.468704,297.197998 169.565674,298.397522 
	C167.143600,298.694763 164.709076,300.176178 163.686996,296.620514 
	C163.299973,295.274139 162.045959,296.354309 161.253723,296.743378 
	C159.206528,297.748688 157.349426,299.280792 154.459412,298.874268 
	C154.620941,294.419861 158.709656,292.854675 161.407181,289.758362 
	C162.538162,289.136932 163.425690,288.932526 164.711975,289.106049 
	C167.903351,288.707001 170.132568,289.176025 171.384262,292.305328 
	C171.862747,293.501617 172.411728,296.173706 175.160690,293.659821 
	C176.365005,292.558441 176.835495,295.387268 177.863464,296.618805 
z"/>
<path fill="#6683C1" opacity="1.000000" stroke="none" 
	d="
M161.776947,289.883484 
	C159.499237,292.879211 156.935562,295.562866 154.223572,298.525848 
	C151.744781,298.787964 149.414322,298.770721 146.670029,298.645386 
	C145.300568,296.941193 144.344940,295.345093 143.257996,293.463684 
	C143.439362,292.319336 144.098175,291.792877 145.260864,291.210266 
	C150.957993,290.802124 156.080750,288.648315 161.776947,289.883484 
z"/>
<path fill="#0C4283" opacity="1.000000" stroke="none" 
	d="
M89.980988,301.966797 
	C92.058632,304.155731 92.319679,307.477814 95.723595,308.841614 
	C97.987968,313.933777 95.858498,318.113861 93.320160,322.556122 
	C92.262619,322.901611 91.512672,322.966644 90.391479,323.098267 
	C87.887619,322.958801 85.755028,322.752777 83.302139,322.330048 
	C84.307777,316.869171 85.681953,311.636505 86.932899,306.374542 
	C87.357361,304.589050 87.521088,302.760101 89.980988,301.966797 
z"/>
<path fill="#E794A9" opacity="1.000000" stroke="none" 
	d="
M145.369461,291.958130 
	C144.822144,292.577209 144.269379,292.808197 143.421646,293.108765 
	C140.547943,293.452393 137.938446,293.561127 135.396759,294.034271 
	C129.818481,295.072662 126.312798,292.926758 124.487915,287.290588 
	C125.857933,282.008179 128.808426,277.409424 129.173981,271.561401 
	C130.558807,271.676971 131.877945,272.190918 133.476151,272.798798 
	C134.000153,273.674927 134.273270,274.449615 134.485672,275.240570 
	C136.510651,282.781403 136.507675,282.782196 144.595825,283.123535 
	C146.355942,285.937714 145.004364,288.788849 145.369461,291.958130 
z"/>
<path fill="#F0AAAF" opacity="1.000000" stroke="none" 
	d="
M145.788757,292.310822 
	C142.920288,289.682251 144.010361,286.813660 144.956146,283.576782 
	C151.394684,283.212677 157.767700,283.228943 164.597504,283.387848 
	C165.043625,285.135223 165.032959,286.740021 165.036102,288.758484 
	C164.262589,289.457916 163.475266,289.743622 162.375412,290.112427 
	C156.776123,290.888855 151.489349,291.582153 145.788757,292.310822 
z"/>
<path fill="#0C4283" opacity="1.000000" stroke="none" 
	d="
M104.365898,288.936462 
	C99.783150,282.729431 96.796051,276.654541 99.735909,268.409515 
	C103.256447,258.535919 105.242729,248.115250 107.950089,237.566254 
	C108.006706,237.201019 108.454384,237.058990 108.664368,236.953873 
	C110.774124,236.239746 113.736877,238.085968 114.495193,234.196121 
	C114.650238,233.909866 114.855293,233.991791 114.947884,234.052460 
	C115.494499,234.127319 115.948517,234.141541 116.742386,234.177032 
	C117.260429,234.331680 117.438637,234.465057 117.895599,234.782242 
	C118.464836,235.036484 118.695000,235.194656 118.951553,235.633057 
	C115.273468,253.020325 110.793373,270.034485 106.128670,287.002258 
	C105.902145,287.826233 105.629990,288.574219 104.365898,288.936462 
z"/>
<path fill="#F0AAAF" opacity="1.000000" stroke="none" 
	d="
M113.247078,212.136261 
	C114.316895,209.714157 115.893875,207.575531 118.041023,206.026062 
	C120.725273,204.088974 123.212257,205.074539 123.218170,208.221985 
	C123.227440,213.151611 122.961365,218.100082 122.473518,223.006927 
	C122.034546,227.422180 119.130264,230.397736 115.356750,232.976105 
	C115.019859,227.815842 115.026573,222.557037 114.990196,217.298553 
	C114.977982,215.531830 115.393867,213.614609 113.247078,212.136261 
z"/>
<path fill="#E794A9" opacity="1.000000" stroke="none" 
	d="
M114.294540,233.901581 
	C114.776909,237.882843 113.896034,240.242081 109.221817,236.965469 
	C107.151024,234.133591 105.061554,231.571503 104.925606,227.721069 
	C108.348930,229.666641 109.522026,234.214371 114.294540,233.901581 
z"/>
<path fill="#08508A" opacity="1.000000" stroke="none" 
	d="
M118.047806,234.762695 
	C117.850212,234.935532 117.570526,234.807877 117.208755,234.390686 
	C117.430794,234.158295 117.710480,234.278641 118.047806,234.762695 
z"/>
<path fill="#E794A9" opacity="1.000000" stroke="none" 
	d="
M118.259155,331.113953 
	C118.608192,326.641693 119.857712,324.846527 123.728233,328.995270 
	C125.303215,330.683502 127.437111,332.411682 130.644287,331.967773 
	C131.276840,331.876709 131.521622,331.796509 132.071655,331.954285 
	C132.762344,332.917999 132.793716,333.662933 132.258606,334.729492 
	C128.274292,334.061432 124.529640,333.089569 120.402206,332.083496 
	C119.520149,331.774292 119.020882,331.499268 118.259155,331.113953 
z"/>
<path fill="#CE8CB2" opacity="1.000000" stroke="none" 
	d="
M132.233582,335.142761 
	C132.019653,334.271179 132.020355,333.509094 132.024567,332.366516 
	C138.178497,328.840057 144.194229,331.558563 150.632187,332.682220 
	C153.483841,333.099457 155.956284,333.239044 158.716339,333.648254 
	C158.759171,337.079285 159.462936,340.282898 158.289642,343.698700 
	C153.899689,342.748901 149.801514,341.516418 145.353790,340.151154 
	C141.539917,337.907440 137.557953,337.278503 133.389679,336.058655 
	C132.903809,335.706696 132.716736,335.449799 132.233582,335.142761 
z"/>
<path fill="#DCA8C5" opacity="1.000000" stroke="none" 
	d="
M151.008423,332.511719 
	C144.986328,332.636414 138.961273,332.312958 132.482147,331.987793 
	C132.028076,331.986023 131.529648,331.975006 131.280853,331.965942 
	C129.764542,328.716736 129.994217,325.321442 129.987732,321.513123 
	C134.104797,320.434082 138.085403,321.888458 142.592529,321.871552 
	C145.404022,320.131256 147.857574,320.338470 150.671021,321.918823 
	C150.997482,325.540070 151.001465,328.801849 151.008423,332.511719 
z"/>
<path fill="#08508A" opacity="1.000000" stroke="none" 
	d="
M93.459343,322.903320 
	C94.010483,318.502533 95.008392,314.168488 96.011078,309.424744 
	C99.401176,309.337463 102.786522,309.659882 106.587845,310.066345 
	C109.138786,314.223969 106.881279,317.719666 105.272514,321.667542 
	C101.392586,323.264618 97.624718,322.835266 93.459343,322.903320 
z"/>
<path fill="#075D90" opacity="1.000000" stroke="none" 
	d="
M105.444183,322.050110 
	C104.738373,318.148773 106.921341,314.739532 107.002213,310.551086 
	C110.340256,310.143616 113.676674,310.136810 117.468079,310.171265 
	C117.937157,313.146423 117.951256,316.080322 117.965263,319.454773 
	C114.061813,321.323486 110.006607,321.918945 105.444183,322.050110 
z"/>
<path fill="#2DBCE3" opacity="1.000000" stroke="none" 
	d="
M151.352554,322.195862 
	C148.632294,322.158813 146.271072,322.039337 143.465363,321.874878 
	C142.990707,320.628357 142.859756,319.410370 143.860504,318.091370 
	C147.274643,318.322540 149.862427,320.146912 152.933823,321.626282 
	C152.683090,321.962616 152.197357,322.037994 151.352554,322.195862 
z"/>
<path fill="#4A377B" opacity="1.000000" stroke="none" 
	d="
M212.795715,228.880890 
	C212.978867,229.615219 212.988007,230.051163 212.998779,230.814102 
	C211.280212,232.914749 208.788864,232.816254 206.715057,233.731140 
	C205.646912,234.202347 204.504166,234.728409 204.387726,236.025589 
	C204.240616,237.664658 205.614487,238.168808 206.809708,238.727066 
	C211.440979,240.890259 215.777817,239.066971 220.486740,237.840729 
	C221.497116,238.499878 222.171844,239.057831 222.988098,239.922256 
	C216.614624,245.948395 208.219543,246.391708 201.271866,241.382950 
	C194.494263,236.496811 192.338959,228.077042 195.936966,219.354401 
	C199.495071,221.003540 202.829132,222.964966 206.503143,224.977509 
	C209.040741,225.771866 210.581223,227.583679 212.795715,228.880890 
z"/>
<path fill="#6683C1" opacity="1.000000" stroke="none" 
	d="
M164.432953,233.745255 
	C163.587433,237.340363 164.359024,240.023102 166.847595,242.549286 
	C167.037766,243.269714 167.025314,243.714401 167.018646,244.491562 
	C161.031937,240.935791 160.052826,237.285324 163.622086,230.811783 
	C164.685867,231.357071 164.793839,232.270554 164.432953,233.745255 
z"/>
<path fill="#A7DEEF" opacity="1.000000" stroke="none" 
	d="
M220.851440,237.704071 
	C216.352173,241.257355 211.470932,241.774887 206.290039,240.010513 
	C204.367340,239.355728 202.356094,238.412857 202.374207,236.108093 
	C202.392548,233.777908 204.531876,232.870316 206.399292,232.286438 
	C208.267120,231.702423 210.281754,231.587952 212.616226,231.204376 
	C213.511642,231.339661 214.022873,231.538208 214.767151,231.882874 
	C215.426346,232.477875 216.021805,232.504288 216.816116,232.800659 
	C217.065475,232.944580 216.996918,232.982178 217.014557,232.947296 
	C218.300797,233.984253 220.029343,234.596130 220.686768,236.706268 
	C220.830612,236.989517 220.880478,237.466202 220.851440,237.704071 
z"/>
<path fill="#F1F9FC" opacity="1.000000" stroke="none" 
	d="
M213.260864,228.980255 
	C210.215942,229.347015 208.482666,227.851791 207.017944,225.331345 
	C206.756744,221.976257 207.350739,219.309189 210.923096,218.656372 
	C213.087509,218.260834 214.923676,219.017029 215.929184,221.020401 
	C217.571625,224.292770 216.107651,226.732452 213.260864,228.980255 
z"/>
<path fill="#F1F9FC" opacity="1.000000" stroke="none" 
	d="
M220.928574,236.626953 
	C219.612457,235.838577 218.394318,234.687637 217.104187,233.224548 
	C219.443985,232.742371 220.716446,233.929993 220.928574,236.626953 
z"/>
<path fill="#F1F9FC" opacity="1.000000" stroke="none" 
	d="
M216.997726,232.621368 
	C216.491302,232.807861 215.917114,232.671158 215.171570,232.281708 
	C215.643463,232.118713 216.286713,232.208435 216.997726,232.621368 
z"/>
<path fill="#61D3ED" opacity="1.000000" stroke="none" 
	d="
M164.593048,233.975342 
	C164.231689,233.316437 164.117355,232.412094 163.960968,231.049591 
	C166.557190,227.112183 170.042984,226.309296 173.999664,227.699127 
	C177.335571,228.870911 178.834473,231.524750 178.947296,234.982635 
	C178.991074,236.324722 178.973877,238.051682 177.537155,238.382523 
	C175.351135,238.885895 176.356567,236.594742 175.722855,235.677322 
	C174.538071,233.962158 176.007706,230.145798 173.574478,230.287643 
	C170.640427,230.458710 166.728729,230.104492 164.593048,233.975342 
z"/>
<path fill="#61D3ED" opacity="1.000000" stroke="none" 
	d="
M167.922226,238.911911 
	C166.640900,236.446213 167.130371,234.725037 169.267380,233.643799 
	C170.677979,232.930084 171.964096,233.625732 172.629684,234.830368 
	C173.470581,236.352356 173.398163,238.040680 172.146851,239.418793 
	C170.765778,240.939850 169.361526,241.037384 167.922226,238.911911 
z"/>
</svg>