<svg version="1.1" id="Layer_1" xmlns="http://www.w3.org/2000/svg" xmlns:xlink="http://www.w3.org/1999/xlink" x="0px" y="0px"
	 width="100%" viewBox="0 0 321 129" enable-background="new 0 0 321 129" xml:space="preserve">
<path fill="#5C80E6" opacity="1.000000" stroke="none" 
	d="
M312.303955,129.601593 
	C219.979111,130.000000 127.958214,130.000000 35.468658,130.000000 
	C33.286037,128.076111 33.403366,125.689728 33.400940,123.370529 
	C33.367512,91.405869 33.372696,59.441181 33.393353,27.476501 
	C33.394535,25.645987 33.391495,23.807877 34.246349,21.613968 
	C35.980293,19.518394 38.034031,19.511919 40.012165,19.500795 
	C45.825699,19.468107 51.642876,19.237843 57.861481,19.738102 
	C61.346661,20.703844 60.678268,22.823591 59.911152,24.924381 
	C58.078785,29.942390 58.475636,34.875187 60.586803,40.051270 
	C60.920475,40.519062 61.060349,40.700466 61.408928,41.152306 
	C61.756851,41.601490 61.896072,41.780239 62.449165,42.493225 
	C63.002827,43.203613 63.142620,43.379761 63.498600,43.813377 
	C69.444603,47.767471 75.213646,47.763039 81.266556,44.012852 
	C83.685852,40.215176 82.451157,36.332314 82.515289,32.590481 
	C82.550247,30.550875 80.841095,30.260923 79.286812,30.389708 
	C77.076881,30.572823 74.433121,29.310976 72.804207,31.632032 
	C71.926048,32.883339 72.622871,34.148945 74.151695,34.779530 
	C77.062439,35.980103 77.672386,38.064465 76.117310,41.098347 
	C75.651207,41.492950 75.438789,41.619404 74.875244,41.867859 
	C73.069656,42.306080 71.576256,42.207909 69.737556,42.439449 
	C68.850243,42.472057 68.369209,42.343956 67.628304,41.846977 
	C67.172379,41.404850 67.008896,41.208355 66.636810,40.688541 
	C66.311760,40.135910 66.195320,39.906605 65.935196,39.318878 
	C64.801720,36.281933 64.602196,33.499538 64.737831,30.680914 
	C65.081390,23.541351 69.213158,20.267277 75.904625,22.426283 
	C78.947731,23.408140 80.934654,22.958925 83.132538,20.424507 
	C86.251938,19.337267 89.039543,19.412378 92.223434,20.189623 
	C94.606560,22.000107 93.749580,23.930695 93.057388,25.761017 
	C91.659531,29.457310 90.501587,33.232037 89.125565,37.330963 
	C88.540054,38.924755 87.698380,40.040100 87.460205,41.323551 
	C87.202026,42.714764 85.320847,44.579819 87.907089,45.464821 
	C89.819542,46.119259 91.438469,45.266014 92.312233,43.276604 
	C93.191559,41.274555 94.212944,39.334820 96.692009,38.991447 
	C100.294579,38.492455 103.700722,38.480434 105.404121,42.647110 
	C105.893204,43.843445 106.449455,45.173130 107.950150,45.461353 
	C109.064224,45.675320 110.353775,46.016182 111.254173,45.144669 
	C112.063408,44.361397 111.551498,43.269779 111.173584,42.373150 
	C110.081482,39.782085 109.268555,37.090794 108.133804,34.118164 
	C107.351219,29.358835 103.870445,25.644279 105.154388,20.581434 
	C108.218925,19.229691 111.008301,19.431820 114.175354,20.132050 
	C117.075790,22.258301 115.495361,25.083130 116.010712,27.207190 
	C116.181206,25.374046 115.619423,23.214935 116.742249,20.875786 
	C118.419739,19.690615 119.981766,19.669487 121.953629,19.996065 
	C125.658844,21.801647 126.664879,25.323099 128.615494,28.118305 
	C130.003616,30.107466 130.973907,32.434052 133.172440,34.088570 
	C134.660507,29.701597 132.589920,25.054928 134.974670,20.687141 
	C136.221878,19.965277 137.216248,19.931385 138.570984,20.366133 
	C140.892700,22.584707 139.508377,25.222448 140.047989,27.255222 
	C140.187790,25.297489 139.480957,22.997688 141.036743,20.644165 
	C142.399170,19.941822 143.464325,19.965132 144.897705,20.586369 
	C146.925461,23.207832 146.300018,25.946014 146.363571,28.555225 
	C146.476776,33.201687 146.316849,37.852352 146.447876,42.500130 
	C146.495605,44.192822 147.120102,45.470280 149.069290,45.376625 
	C150.669724,45.299728 151.348618,44.202339 151.511993,42.730515 
	C151.621948,41.739918 151.575485,40.739342 151.636108,39.745655 
	C151.936005,34.831528 153.062378,33.663754 157.477081,33.655540 
	C161.905273,33.647308 162.983673,34.855339 163.406021,39.695824 
	C163.587296,41.773491 162.290405,45.165512 165.763443,45.261570 
	C169.607559,45.367897 168.425644,41.807220 168.575546,39.552803 
	C168.970749,33.608395 167.982483,27.612818 169.421265,21.324331 
	C170.547028,20.135403 171.626480,19.974644 173.159332,20.230167 
	C176.290436,22.502773 174.246536,25.536821 175.020401,27.511225 
	C175.336121,25.704473 174.404099,23.195444 175.981827,20.661884 
	C177.604095,19.753670 178.960175,19.752205 180.714508,20.437733 
	C181.532303,21.155785 181.992355,21.736652 181.923401,22.391659 
	C181.455917,26.831009 182.384064,29.889469 187.881409,29.116512 
	C189.293243,28.918001 190.552032,29.735268 190.558472,31.361914 
	C190.567291,33.599266 188.888397,33.937050 187.126617,33.959671 
	C184.173157,33.997589 181.021637,33.366867 181.380264,38.253746 
	C181.573547,40.887562 182.371994,41.748463 184.885162,41.547817 
	C186.850342,41.390926 188.838715,41.505650 191.243011,41.562672 
	C192.667328,42.207428 193.438217,42.971779 193.379822,44.614975 
	C188.165207,47.019569 182.860367,45.738995 177.646179,45.826561 
	C175.406998,45.864162 175.549728,43.654591 175.161591,42.236736 
	C175.146378,45.190479 176.683395,46.231941 179.708832,46.057781 
	C183.672455,45.829617 187.658905,46.018158 191.983246,45.974659 
	C195.275497,44.663734 193.923080,43.306232 192.058807,41.750618 
	C189.742081,41.401741 187.750351,41.425823 185.769653,41.508350 
	C183.208069,41.615082 181.318481,41.508629 181.416962,37.964401 
	C181.504318,34.820457 182.810638,33.841091 185.637695,34.001934 
	C186.626404,34.058189 187.625031,34.024441 188.614929,33.921028 
	C189.939316,33.782661 190.767944,33.094963 190.842117,31.723688 
	C190.928040,30.135210 190.121826,29.255005 188.545807,29.079264 
	C187.556732,28.968971 186.561188,28.999435 185.569092,28.952930 
	C183.429428,28.852634 182.169846,27.873293 182.111893,25.604137 
	C182.055786,23.407351 183.170654,22.206076 185.256927,21.849833 
	C188.149841,21.355850 191.278824,22.119921 194.345337,20.061663 
	C197.235138,19.297972 199.736359,19.389008 202.227310,19.388388 
	C235.972672,19.379999 269.718048,19.377172 303.463409,19.394979 
	C306.110077,19.396376 308.797180,19.149712 311.771240,20.448513 
	C313.838928,22.891283 313.599915,25.454720 313.602570,27.928444 
	C313.636688,59.574253 313.633118,91.220093 313.608215,122.865921 
	C313.606537,125.020248 313.739594,127.217445 312.303955,129.601593 
z"/>
<path fill="#FFFFFF" opacity="1.000000" stroke="none" 
	d="
M61.266792,41.748604 
	C55.509510,35.593719 56.800468,28.793842 59.993622,21.527901 
	C61.429577,16.432665 65.363678,15.884606 67.777206,15.691753 
	C60.339684,17.240740 51.189545,16.218037 42.083958,16.353880 
	C38.940865,16.400768 36.567459,17.012362 35.386078,20.642979 
	C35.099136,57.000622 35.048988,93.031654 34.999420,129.531342 
	C24.507982,130.000000 14.015072,129.928757 3.524704,130.060318 
	C1.435814,130.086502 0.932797,129.712555 0.937299,127.527618 
	C1.022401,86.225883 1.041780,44.923794 0.905311,3.622334 
	C0.896283,0.890125 1.880473,0.966711 3.873809,0.967411 
	C108.960510,1.004314 214.047256,1.026184 319.133789,0.888895 
	C322.735870,0.884189 321.993988,2.699683 321.994354,4.628995 
	C322.001801,44.931664 321.935669,85.234604 322.104187,125.536568 
	C322.120239,129.368973 321.145874,130.621643 317.463806,130.038055 
	C316.001648,129.806305 314.472015,130.000000 312.486572,130.000000 
	C311.990143,93.967949 311.980286,57.935894 311.910583,21.436722 
	C310.163116,17.251432 307.155151,16.497536 303.309692,16.512764 
	C275.335480,16.623549 247.360382,16.641455 219.385956,16.557743 
	C175.443832,16.426250 131.501999,16.431814 87.559998,16.563843 
	C85.070869,16.571321 82.561737,16.765018 80.189781,16.167700 
	C79.555771,15.740767 79.630280,16.902544 79.795830,16.256760 
	C79.835114,16.103476 79.968849,16.187040 80.278931,16.330923 
	C81.892509,17.079630 82.985252,18.231649 83.213707,20.506382 
	C82.033302,24.632099 80.540764,26.256689 76.330414,23.903278 
	C70.775558,20.798340 66.228477,23.812479 66.005066,30.151571 
	C65.895348,33.264496 65.732178,36.400898 67.213058,39.649185 
	C64.406525,40.270893 63.524971,38.308094 63.167046,36.427155 
	C62.052650,30.570883 62.185501,24.942635 67.932945,20.697998 
	C71.305397,19.381783 74.432312,19.771685 78.274452,19.917501 
	C73.165222,18.610365 68.897850,18.227722 64.807869,21.678257 
	C60.720711,25.818226 59.895683,30.468388 60.999199,35.645432 
	C61.406132,37.554520 62.266968,39.442707 61.266792,41.748604 
z"/>
<path fill="#FBFCFE" opacity="1.000000" stroke="none" 
	d="
M191.362076,107.825745 
	C181.829849,108.674690 173.279404,107.530022 168.547974,98.522270 
	C163.359009,88.643463 163.274002,78.275070 168.578125,68.406906 
	C173.035690,60.113693 183.028336,56.755970 193.319199,59.274914 
	C201.180832,61.199249 207.169373,68.560104 207.883438,77.556190 
	C208.172241,81.194656 208.296387,84.919609 207.859253,88.528130 
	C206.674210,98.310692 201.856613,105.287926 191.362076,107.825745 
z"/>
<path fill="#000000" opacity="1.000000" stroke="none" 
	d="
M83.595009,20.983925 
	C81.523285,17.168829 77.925186,16.384735 74.499138,15.000218 
	C75.912086,15.000218 77.325027,15.000218 78.737968,15.000218 
	C154.866226,15.000219 230.994568,15.043934 307.122498,14.885763 
	C311.443359,14.876785 312.758453,16.091314 311.919830,20.522825 
	C272.923950,20.978588 233.997208,20.987574 194.611542,20.983353 
	C193.425217,18.189400 191.706100,17.067142 188.779037,17.278433 
	C185.819717,17.492050 182.819565,17.484385 179.859406,17.280867 
	C177.142960,17.094105 175.471664,18.173237 174.152863,20.770050 
	C172.862686,20.982252 171.881073,20.989962 170.531433,20.988220 
	C169.843964,20.872034 169.543808,20.727999 169.310242,20.498556 
	C164.802689,16.070919 164.484467,16.104357 160.729935,21.581720 
	C158.426498,22.506742 156.402222,22.424618 154.010284,21.944057 
	C152.538132,21.377569 152.007233,20.323666 151.236649,19.502726 
	C148.485779,16.572119 147.558472,16.760080 145.126007,20.780602 
	C143.854721,20.984501 142.872528,20.990717 141.522186,20.985394 
	C140.670166,20.811335 140.295029,20.494509 139.934036,20.145679 
	C135.922745,16.269566 135.600311,16.323732 132.861588,21.478481 
	C130.588852,22.529577 128.547546,22.394714 126.138229,22.035950 
	C124.297783,21.472055 123.580338,20.098837 122.490280,19.161875 
	C119.345764,16.459015 117.718826,16.804661 115.132469,20.783003 
	C111.909714,20.981556 108.973282,20.989496 105.597191,20.987213 
	C102.367081,20.138763 101.003090,15.389588 96.705170,18.204773 
	C95.386810,19.222834 94.927658,20.619789 93.345383,21.196922 
	C90.022804,21.104603 87.030869,21.050175 83.595009,20.983925 
z"/>
<path fill="#FAFBFE" opacity="1.000000" stroke="none" 
	d="
M96.602867,99.252121 
	C90.826477,108.283295 75.899635,111.102264 67.669914,105.026527 
	C64.452698,102.651352 64.517616,97.900810 67.693001,95.681557 
	C69.130692,94.676758 69.825096,95.816879 70.706406,96.413712 
	C73.685707,98.431290 76.895203,99.576637 80.547554,99.342552 
	C85.233612,99.042206 87.789017,96.650803 87.984047,92.305153 
	C88.183540,87.859932 85.519859,84.629395 81.047874,84.047806 
	C78.714256,83.744316 76.458138,84.232689 74.163773,84.792244 
	C68.960732,86.061172 67.651390,84.918991 68.165810,79.776802 
	C68.727448,74.162628 69.557060,68.571854 69.984207,62.949173 
	C70.176460,60.418449 71.357323,59.983429 73.505394,60.011959 
	C79.666122,60.093803 85.829529,59.983952 91.989853,60.079708 
	C93.768532,60.107349 96.455452,59.099407 96.511589,62.335060 
	C96.555801,64.883163 96.019325,67.344368 92.897911,68.127190 
	C89.273575,69.036140 85.583298,68.751503 81.960426,68.551003 
	C78.397614,68.353813 77.983597,70.067497 77.783051,72.975708 
	C77.539932,76.501076 79.548996,76.088524 81.827377,76.092712 
	C95.384087,76.117638 101.315231,85.203590 96.602867,99.252121 
z"/>
<path fill="#F7F9FE" opacity="1.000000" stroke="none" 
	d="
M267.072632,67.860611 
	C261.165009,66.871498 262.046509,70.588562 261.770996,73.912941 
	C261.440765,77.897514 263.504089,78.260277 266.552979,78.008720 
	C268.369965,77.858803 270.214050,78.064140 272.037720,77.962379 
	C274.910828,77.802055 277.059326,77.764114 277.024261,81.919350 
	C276.990723,85.895645 275.123047,86.025490 272.114197,86.015358 
	C261.846069,85.980751 261.845673,86.057732 261.870758,96.457993 
	C261.874359,97.954727 261.652588,99.494629 261.926361,100.940483 
	C262.936340,106.274673 260.451538,107.261711 255.640320,107.139877 
	C251.734482,107.040985 250.982651,105.753113 251.039398,102.198540 
	C251.241165,89.562485 251.300903,76.917992 251.042770,64.284286 
	C250.959045,60.186611 252.381256,59.142273 256.192322,59.266758 
	C263.169189,59.494656 270.160797,59.233353 277.143524,59.345734 
	C278.859802,59.373356 281.460876,58.126183 281.858978,61.356819 
	C282.233765,64.398788 281.013275,66.581604 277.972809,67.428337 
	C274.548798,68.381905 271.025513,67.662575 267.072632,67.860611 
z"/>
<path fill="#FDFEFF" opacity="1.000000" stroke="none" 
	d="
M215.509796,106.415009 
	C215.127472,91.769836 215.109589,77.460632 214.955688,63.152889 
	C214.928421,60.618309 215.658737,59.606964 218.315445,59.653519 
	C225.792984,59.784557 233.274628,59.662552 240.753998,59.722546 
	C242.586517,59.737240 245.091583,58.936863 245.195908,62.139606 
	C245.279648,64.709808 244.370758,66.637024 241.582397,67.337151 
	C237.630447,68.329445 233.624939,67.522041 229.663895,67.864159 
	C228.131958,67.996468 225.777115,66.936867 225.283615,68.979218 
	C224.636169,71.658699 224.539551,74.606140 225.432053,77.319824 
	C225.764481,78.330620 227.191101,77.967308 228.153137,77.981636 
	C230.649155,78.018806 233.147415,78.048203 235.642212,77.982498 
	C238.250900,77.913788 240.456970,77.668861 240.413498,81.645576 
	C240.373779,85.281456 239.076614,86.030998 235.739868,86.017822 
	C225.003799,85.975410 225.003311,86.100685 225.003311,96.919792 
	C225.003311,97.419106 225.003311,97.918411 225.003311,98.417725 
	C225.003296,107.340027 225.003296,107.340027 215.509796,106.415009 
z"/>
<path fill="#F9FAFE" opacity="1.000000" stroke="none" 
	d="
M128.566223,94.587639 
	C127.055969,97.013596 125.420677,99.006386 124.510956,101.288422 
	C122.402603,106.577209 118.735229,108.122215 112.821884,106.418648 
	C115.999023,101.118050 119.091629,95.898933 122.242363,90.715149 
	C127.680740,81.767601 133.167023,72.849152 138.604919,63.901314 
	C139.731186,62.048100 140.755951,60.139847 142.789474,59.088860 
	C144.742874,58.079281 147.041870,58.190041 148.458298,59.368599 
	C150.205978,60.822777 147.983673,62.251724 147.237198,63.509499 
	C141.131256,73.797684 134.937729,84.033882 128.566223,94.587639 
z"/>
<path fill="#F9FBFE" opacity="1.000000" stroke="none" 
	d="
M127.734039,73.465561 
	C125.407661,81.312630 120.939583,84.650826 114.404427,83.781502 
	C108.180244,82.953552 104.351761,78.078293 104.374596,71.009369 
	C104.397293,63.984318 108.086220,59.511116 114.687401,58.504040 
	C122.636391,57.291344 127.906166,63.142975 127.734039,73.465561 
z"/>
<path fill="#F9FBFE" opacity="1.000000" stroke="none" 
	d="
M139.937225,84.653931 
	C146.389923,81.953339 151.548065,82.641129 155.000961,86.394989 
	C158.256393,89.934174 159.066681,97.075218 156.768066,101.968452 
	C154.548080,106.694290 149.012909,109.092690 143.170395,107.860352 
	C138.500473,106.875336 135.296494,102.925171 134.998016,97.799911 
	C134.709045,92.837845 134.913544,88.056091 139.937225,84.653931 
z"/>
<path fill="#F7F9FE" opacity="1.000000" stroke="none" 
	d="
M160.642517,21.267282 
	C161.262115,18.907215 160.806992,16.239504 164.034851,15.999877 
	C167.149826,15.768630 169.181931,17.153404 170.089157,20.591999 
	C170.071548,28.115696 169.868042,35.253700 169.936996,42.389069 
	C169.969299,45.730747 168.916412,47.066673 165.353912,47.110065 
	C161.651428,47.155159 161.868683,45.080154 161.963043,42.664875 
	C162.001892,41.670280 161.852081,40.658005 161.980743,39.679096 
	C162.443085,36.161682 161.364243,34.786289 157.437607,34.813545 
	C153.534943,34.840630 152.790192,36.197529 152.810944,39.719280 
	C152.828384,42.676174 154.758789,47.230373 148.545837,47.085587 
	C145.645844,47.018005 144.890823,46.063568 144.945007,43.324013 
	C145.086136,36.187527 144.966736,29.045887 144.894073,21.442293 
	C145.822495,19.463341 143.388062,16.620329 146.459274,16.062822 
	C149.687149,15.476880 152.131668,16.771032 153.090134,20.595440 
	C153.352264,21.243696 153.515778,21.521646 153.682663,21.797523 
	C154.669708,23.429125 153.789185,26.425627 156.897476,26.495327 
	C160.347107,26.572685 159.257629,23.203979 160.642517,21.267282 
z"/>
<path fill="#5C80E6" opacity="1.000000" stroke="none" 
	d="
M68.705856,20.829144 
	C63.245026,25.387165 62.147480,32.963036 66.675873,39.914394 
	C67.025391,40.050537 66.993011,40.008499 66.976410,39.987801 
	C67.269478,40.269089 67.550865,40.595455 67.910599,41.251984 
	C68.017204,41.557785 68.348747,41.869526 68.425491,41.953583 
	C70.228348,41.260075 72.263168,42.727776 74.208588,41.128204 
	C74.517891,40.960804 74.493576,40.987869 74.477722,40.978935 
	C76.402481,41.807152 76.785400,40.478241 76.909065,39.083614 
	C77.055145,37.436089 77.188339,35.656147 75.036873,35.067764 
	C73.461792,34.637016 72.155609,33.951294 72.546402,32.056644 
	C72.997467,29.869785 74.881210,30.110289 76.503357,30.020378 
	C82.280304,29.700184 83.006592,30.352392 82.966904,36.305790 
	C82.950600,38.751282 83.441010,41.255680 82.159256,43.955971 
	C76.204155,47.812271 70.367363,47.912125 64.018288,44.928154 
	C63.147049,44.486000 62.748589,44.116241 62.213387,43.301640 
	C61.977177,42.963886 62.007832,42.996521 62.021393,43.014336 
	C61.800339,42.793175 61.569447,42.550659 61.153854,42.138588 
	C60.965446,41.972565 60.999626,41.999966 61.012001,42.018002 
	C60.794678,37.158657 57.645138,32.644588 59.827583,27.369118 
	C60.774811,25.079458 61.451244,22.847326 63.679749,21.034096 
	C65.418610,20.201042 66.849068,19.731451 68.705856,20.829144 
z"/>
<path fill="#000000" opacity="1.000000" stroke="none" 
	d="
M35.607071,20.982557 
	C33.972107,15.980613 35.895531,14.647427 40.927738,14.867623 
	C51.093033,15.312431 61.291447,15.000218 71.567062,15.371663 
	C67.255569,15.992178 63.480553,17.477795 60.346352,21.012255 
	C52.035622,21.105398 44.050236,21.050461 35.607071,20.982557 
z"/>
<path fill="#FCFCFF" opacity="1.000000" stroke="none" 
	d="
M173.903748,21.436230 
	C173.558121,17.238661 174.937866,15.548587 179.007767,15.913798 
	C183.140549,16.284649 187.332870,15.963659 191.498474,16.006983 
	C194.413895,16.037304 196.071732,17.001097 194.214981,20.585402 
	C192.539795,24.210186 189.536407,22.647287 187.094589,22.999222 
	C185.337875,23.252413 182.938766,22.139856 182.969284,25.568981 
	C182.996399,28.612324 185.044693,27.909653 186.734863,27.986917 
	C189.139938,28.096865 192.000214,27.367361 191.979950,31.339005 
	C191.958725,35.508179 188.942673,34.846375 186.352356,34.963524 
	C184.372513,35.053066 182.040268,34.120640 181.929733,37.787384 
	C181.811569,41.706902 184.269806,40.908806 186.478668,40.995346 
	C188.616150,41.079079 190.751328,41.221165 193.233841,41.629761 
	C193.314072,42.075291 193.047989,42.228680 192.348373,42.226212 
	C190.084396,42.049408 188.253983,42.016518 186.423477,42.009769 
	C181.135345,41.990284 179.630829,39.925453 181.016403,34.726276 
	C181.844803,31.617783 184.326126,33.576942 185.976166,33.006474 
	C187.318344,32.542435 189.859589,34.100235 189.774414,31.351954 
	C189.705002,29.112988 187.393326,29.952330 186.162918,30.071880 
	C179.037354,30.764204 181.399658,25.539297 181.005463,21.593781 
	C183.113937,18.822067 185.996841,20.169373 188.450897,19.396397 
	C184.510269,19.818720 180.416031,18.231985 176.381561,20.718906 
	C176.154495,25.357563 176.154495,29.742695 176.154495,34.127827 
	C175.620087,34.166172 175.085678,34.204514 174.551270,34.242855 
	C173.349426,30.255192 174.312149,25.993536 173.903748,21.436230 
z"/>
<path fill="#FDFDFF" opacity="1.000000" stroke="none" 
	d="
M114.906067,21.432865 
	C115.307671,19.090822 114.140335,16.339043 117.502129,16.004374 
	C120.995262,15.656631 123.361549,17.229517 125.002884,20.640213 
	C129.250076,23.425461 130.701431,27.768913 133.209885,32.663353 
	C133.050430,32.265762 133.346283,31.203121 132.860474,31.659660 
	C131.114258,28.379942 131.451263,25.009577 132.633789,21.293255 
	C133.826752,19.462744 131.401993,16.629648 134.460632,16.069269 
	C137.682281,15.479024 140.110657,16.785351 141.080505,20.586891 
	C140.545425,25.002367 141.705139,29.208933 140.436981,33.171036 
	C139.946136,33.170731 139.455292,33.170425 138.964447,33.170116 
	C138.964447,29.411814 138.964447,25.653509 138.905807,21.433491 
	C137.891388,19.927950 136.898483,19.126112 135.364532,20.720722 
	C135.081238,25.277367 134.987442,29.582823 134.953735,33.888748 
	C134.945374,34.957695 134.758499,36.114334 133.803757,36.428211 
	C132.758759,36.771763 131.999237,35.662430 131.495544,34.882526 
	C128.660553,30.492891 125.918900,26.042963 122.997620,21.290709 
	C121.167809,19.992373 119.530289,18.552486 117.362328,20.716942 
	C117.152756,25.027739 117.152756,29.083838 117.152756,33.139938 
	C116.588768,33.185223 116.024773,33.230511 115.460785,33.275795 
	C114.532684,29.585503 115.217522,25.674841 114.906067,21.432865 
z"/>
<path fill="#E4EAFB" opacity="1.000000" stroke="none" 
	d="
M108.709534,34.017330 
	C110.823921,36.154682 111.092506,39.014225 112.058006,41.580948 
	C112.691765,43.265770 115.158348,45.864700 111.752800,46.830750 
	C109.140678,47.571724 105.456863,48.114605 104.619728,43.815720 
	C103.959564,40.425652 101.890396,39.924335 98.871696,39.967045 
	C96.072014,40.006653 94.097015,40.426582 93.467506,43.580921 
	C93.191933,44.961716 92.756462,46.713097 90.947296,46.914177 
	C89.171570,47.111542 87.079140,47.702328 85.632294,46.570004 
	C83.962288,45.263039 85.616615,43.540794 85.978607,42.043297 
	C86.286522,40.769539 86.879044,39.564583 87.643745,38.116646 
	C88.415894,38.046799 88.822075,38.296104 89.285904,39.005791 
	C89.636787,40.313046 89.103752,41.306442 89.729568,42.857437 
	C92.066101,39.205803 94.499763,36.609970 99.278465,36.588371 
	C104.136032,36.566418 105.997131,39.772041 108.512810,43.119095 
	C109.374214,40.128036 107.187042,38.268955 107.404320,35.616844 
	C107.663528,34.804379 107.967407,34.433136 108.709534,34.017330 
z"/>
<path fill="#E7ECFB" opacity="1.000000" stroke="none" 
	d="
M116.643570,42.772919 
	C117.022453,44.589619 117.865593,45.279423 119.520996,45.048500 
	C121.180222,44.817043 121.084785,43.590069 121.079567,42.445992 
	C121.062950,38.799484 121.016357,35.152916 120.949738,31.506948 
	C120.927704,30.301645 120.947258,28.815868 122.173851,28.550184 
	C123.364532,28.292280 124.462463,29.011539 125.251068,30.386580 
	C127.549286,34.393852 130.255005,38.167385 132.554169,42.174183 
	C133.884308,44.492271 135.530609,45.581326 138.566376,45.036148 
	C139.267517,44.648872 139.646667,44.515854 140.351593,44.759357 
	C137.816528,48.030827 134.668564,48.009644 132.329010,44.687958 
	C129.495270,40.664650 126.850807,36.508030 123.039261,32.671963 
	C123.039261,36.055206 123.106537,39.440331 123.012077,42.820934 
	C122.961678,44.624657 123.842911,47.174957 120.469849,47.017204 
	C118.118607,46.907246 115.074348,47.863937 115.326065,43.343773 
	C115.699104,42.655418 116.040588,42.537025 116.643570,42.772919 
z"/>
<path fill="#F3F6FD" opacity="1.000000" stroke="none" 
	d="
M81.010147,44.530586 
	C83.032806,40.585869 81.628143,36.713825 81.912384,32.974205 
	C82.093445,30.591866 80.093369,30.942514 78.712067,31.074970 
	C76.861183,31.252453 74.358009,29.954636 73.304375,32.060867 
	C72.356888,33.954895 74.442909,33.823307 75.690903,34.067642 
	C78.539070,34.625256 77.933151,36.917637 77.976387,38.840725 
	C78.024841,40.995407 77.455193,42.544529 74.623749,41.372337 
	C76.748550,38.957268 77.593361,36.672974 73.731873,36.170135 
	C70.600800,35.762413 70.998024,34.081619 70.992630,32.134132 
	C70.986183,29.808405 72.261528,28.926991 74.448250,28.984034 
	C75.931190,29.022717 77.428543,29.100672 78.897957,28.950617 
	C82.773926,28.554798 84.501602,30.173073 83.953598,34.073452 
	C83.459381,37.590954 84.968086,41.339970 82.381912,44.837929 
	C81.619095,45.330887 81.253502,45.297058 81.010147,44.530586 
z"/>
<path fill="#FCFCFF" opacity="1.000000" stroke="none" 
	d="
M194.015549,46.550961 
	C189.286362,46.915562 184.625809,46.631542 180.033752,47.068047 
	C175.624420,47.487179 173.960251,45.789814 174.170547,41.598110 
	C174.264694,39.721493 174.186462,37.836231 174.186462,36.077927 
	C175.903946,35.904949 175.880524,36.655636 175.924500,37.257168 
	C176.506042,45.209141 176.501495,45.204185 184.696701,45.221375 
	C187.177567,45.226578 189.658356,45.269936 192.609695,45.339523 
	C193.541580,45.516575 193.891876,45.787628 194.015549,46.550961 
z"/>
<path fill="#000000" opacity="1.000000" stroke="none" 
	d="
M176.560211,20.984041 
	C175.746353,19.102484 175.884201,17.854929 178.410538,17.959339 
	C182.516937,18.129051 186.635696,17.981380 190.748642,18.024885 
	C191.610214,18.034000 193.005875,17.642490 192.861313,19.173876 
	C192.772354,20.116131 191.933929,20.941153 190.806778,20.960667 
	C187.845932,21.011929 184.883957,20.996485 181.468262,21.083317 
	C179.664703,21.104565 178.315323,21.050108 176.560211,20.984041 
z"/>
<path fill="#FCFCFF" opacity="1.000000" stroke="none" 
	d="
M109.031403,33.516861 
	C108.959412,34.215630 108.792862,34.488266 108.353653,34.846333 
	C105.036987,33.733498 105.341629,30.524181 104.271454,28.132490 
	C103.483406,26.371325 102.863876,24.526787 101.978073,22.415817 
	C101.062073,19.318069 98.607712,19.321199 96.112900,18.706188 
	C95.576935,18.436853 95.377304,18.296324 95.196335,17.790068 
	C99.850113,14.633504 101.741646,15.198477 105.002861,20.639309 
	C106.439705,25.028589 107.721878,29.080189 109.031403,33.516861 
z"/>
<path fill="#FCFCFF" opacity="1.000000" stroke="none" 
	d="
M89.166168,38.801163 
	C88.521622,38.831856 88.293587,38.621254 88.038483,38.119724 
	C88.859970,32.332600 91.416756,27.278957 93.004684,21.537489 
	C94.811897,20.692287 93.279747,18.516521 94.961510,17.642378 
	C95.364120,17.528009 95.513229,17.631678 95.872391,17.908779 
	C96.595474,18.716087 96.836250,19.445496 96.806946,20.644722 
	C94.183372,26.831829 93.343620,33.349892 89.166168,38.801163 
z"/>
<path fill="#E1E7FA" opacity="1.000000" stroke="none" 
	d="
M80.705223,44.296448 
	C81.186813,44.476547 81.373650,44.692055 81.835007,44.931221 
	C75.383728,49.308201 68.823318,49.203033 62.198921,44.303368 
	C62.286663,43.882366 62.529552,43.778111 63.146515,43.805252 
	C69.058830,46.511543 74.656075,46.934841 80.705223,44.296448 
z"/>
<path fill="#FDFDFF" opacity="1.000000" stroke="none" 
	d="
M140.696289,44.507202 
	C140.244080,44.965599 139.879791,44.977272 139.241745,44.990459 
	C138.968002,41.941017 138.968002,38.890060 138.968002,35.839100 
	C141.619781,38.403305 140.574707,41.313217 140.696289,44.507202 
z"/>
<path fill="#000000" opacity="1.000000" stroke="none" 
	d="
M117.559204,20.983587 
	C117.203957,19.954103 116.279510,18.581982 117.845398,18.075298 
	C120.027550,17.369205 121.462975,18.736000 122.805504,20.603739 
	C121.221764,20.977062 119.593704,20.986300 117.559204,20.983587 
z"/>
<path fill="#FDFDFF" opacity="1.000000" stroke="none" 
	d="
M116.900658,42.531147 
	C116.847931,42.974716 116.372726,42.975227 116.372726,42.975227 
	C116.372726,42.975227 115.897972,42.954403 115.661057,42.952888 
	C115.116806,40.587765 114.808830,38.224110 115.991302,34.794640 
	C117.410233,37.812881 116.825417,40.010010 116.900658,42.531147 
z"/>
<path fill="#000000" opacity="1.000000" stroke="none" 
	d="
M135.522064,20.983616 
	C135.194443,19.948755 134.283569,18.512135 135.862091,18.093729 
	C137.458466,17.670593 138.662064,18.440195 138.913910,20.591476 
	C137.861893,20.979683 136.876602,20.987587 135.522064,20.983616 
z"/>
<path fill="#CBD6F7" opacity="1.000000" stroke="none" 
	d="
M194.265167,46.783531 
	C193.694641,46.516724 193.472321,46.148903 193.165100,45.582153 
	C192.813583,44.484253 192.546982,43.585281 192.097610,42.378334 
	C192.190582,42.034954 192.466339,41.999546 193.161118,41.943024 
	C195.751984,43.112156 195.285645,44.874992 194.265167,46.783531 
z"/>
<path fill="#E7ECFB" opacity="1.000000" stroke="none" 
	d="
M74.042747,40.968445 
	C73.550102,44.644855 71.277649,42.643860 68.926270,42.092178 
	C69.748398,39.573330 71.943596,41.637470 74.042747,40.968445 
z"/>
<path fill="#FFFFFF" opacity="1.000000" stroke="none" 
	d="
M63.327904,43.672554 
	C63.274197,43.938156 63.027798,43.939671 62.412586,43.963905 
	C61.933525,43.822636 61.823280,43.658642 61.845108,43.229271 
	C62.363190,43.112080 62.749199,43.260269 63.327904,43.672554 
z"/>
<path fill="#FFFFFF" opacity="1.000000" stroke="none" 
	d="
M60.969505,42.293251 
	C61.315182,42.107746 61.664913,42.242924 62.024803,42.705124 
	C61.681156,42.892742 61.327358,42.753338 60.969505,42.293251 
z"/>
<path fill="#FFFFFF" opacity="1.000000" stroke="none" 
	d="
M68.194778,41.146564 
	C67.723801,41.236923 67.430397,40.916065 67.048401,40.281151 
	C67.626877,39.862404 68.096535,40.120670 68.194778,41.146564 
z"/>
<path fill="#000000" opacity="1.000000" stroke="none" 
	d="
M69.480148,21.085701 
	C67.629951,21.101906 66.236229,21.043905 64.424652,20.934414 
	C68.768723,16.475897 74.260452,16.317097 81.201286,20.769224 
	C77.145576,22.019449 73.481766,20.474077 69.480148,21.085701 
z"/>
<path fill="#5D80E6" opacity="1.000000" stroke="none" 
	d="
M196.870041,75.516068 
	C198.010452,80.335556 197.930252,84.736908 197.130722,89.221817 
	C195.993805,95.599312 192.444305,99.617859 187.175369,99.975723 
	C182.100845,100.320381 177.616913,96.534576 176.314194,90.266220 
	C175.364532,85.696793 175.401825,80.960274 176.287064,76.388649 
	C177.392532,70.679733 181.073059,67.309578 185.795410,66.960503 
	C191.082489,66.569687 194.058411,68.783478 196.870041,75.516068 
z"/>
<path fill="#5B7FE6" opacity="1.000000" stroke="none" 
	d="
M160.409500,20.987915 
	C159.898102,23.324516 163.634415,27.303410 157.949310,28.066608 
	C152.250656,28.831627 152.846497,25.367533 153.108215,21.422199 
	C155.438217,20.985224 157.711227,20.990498 160.409500,20.987915 
z"/>
<path fill="#5B7FE6" opacity="1.000000" stroke="none" 
	d="
M132.417953,20.985035 
	C132.894577,24.266060 132.953156,27.557114 132.985168,30.848423 
	C132.989426,31.285931 132.858826,31.724752 132.689957,32.810879 
	C130.006165,28.783821 127.627792,25.215033 125.202797,21.310797 
	C127.434654,20.981947 129.713120,20.988544 132.417953,20.985035 
z"/>
<path fill="#6083E7" opacity="1.000000" stroke="none" 
	d="
M113.242508,66.220383 
	C116.240334,63.863522 118.396362,64.270332 119.660950,67.582718 
	C121.135521,71.445114 119.705757,77.020660 117.043327,77.735252 
	C114.898132,78.311028 113.649780,77.115021 112.868622,75.236397 
	C111.657066,72.322678 111.792351,69.443985 113.242508,66.220383 
z"/>
<path fill="#6285E7" opacity="1.000000" stroke="none" 
	d="
M142.341095,95.103928 
	C142.661865,93.415947 142.800491,92.062523 143.285782,90.847588 
	C144.031052,88.981827 145.784012,88.473068 147.425079,89.107567 
	C150.886536,90.445877 150.074814,93.684036 150.121918,96.396141 
	C150.162399,98.727394 150.108948,101.257736 147.147156,101.959511 
	C145.368103,102.381050 143.772644,101.803345 143.184113,99.877289 
	C142.751633,98.461922 142.594254,96.962494 142.341095,95.103928 
z"/>
<path fill="#5B7FE6" opacity="1.000000" stroke="none" 
	d="
M150.510834,20.731251 
	C150.882141,21.639349 150.957718,22.300896 150.968353,22.963486 
	C151.073349,29.501919 154.992172,32.345776 161.005829,29.852545 
	C164.810776,28.275032 162.306961,24.531178 163.108246,21.420719 
	C164.373413,19.886801 165.714310,19.783175 167.496857,20.712763 
	C167.889053,27.958384 167.926117,34.939701 168.004120,41.920559 
	C168.024246,43.721111 167.945740,45.177479 165.475250,45.183220 
	C162.927658,45.189137 162.992279,43.604496 163.022079,41.874382 
	C163.036392,41.043285 162.904709,40.191685 163.041458,39.383606 
	C163.905212,34.279720 161.993378,32.744404 156.710403,32.765224 
	C151.676056,32.785065 150.220612,34.373932 150.960297,38.974491 
	C151.142685,40.108818 150.980621,41.297878 150.984360,42.461750 
	C150.988953,43.887394 150.867661,45.118187 148.906143,45.076351 
	C146.942108,45.034458 146.904633,43.737057 146.912491,42.360889 
	C146.951416,35.544304 147.004318,28.727795 147.107758,21.444201 
	C148.064926,20.164816 149.074310,20.013901 150.510834,20.731251 
z"/>
<path fill="#000000" opacity="1.000000" stroke="none" 
	d="
M167.904205,20.591450 
	C166.538162,20.983185 165.239578,20.989132 163.552063,20.986053 
	C163.222351,19.959673 162.253998,18.471552 163.874557,18.113564 
	C165.608444,17.730549 167.508682,17.756884 167.904205,20.591450 
z"/>
<path fill="#000000" opacity="1.000000" stroke="none" 
	d="
M150.904861,20.598230 
	C149.856812,20.983231 148.876923,20.989143 147.530121,20.986099 
	C147.198700,19.954536 146.294342,18.520813 147.865845,18.102421 
	C149.458206,17.678471 150.661789,18.446646 150.904861,20.598230 
z"/>
<path fill="#5C80E6" opacity="1.000000" stroke="none" 
	d="
M88.756317,39.323780 
	C91.003281,33.068092 93.187340,27.169048 95.691559,21.078033 
	C97.942047,19.401989 99.973114,19.500319 102.454895,20.734695 
	C104.514969,25.408785 106.181763,29.849131 107.998375,34.631149 
	C108.837013,37.145744 109.473007,39.337429 110.235413,41.484222 
	C110.661171,42.683052 111.824257,44.082951 110.096634,44.846275 
	C108.473885,45.563267 106.475136,45.133171 106.188484,43.073692 
	C105.386497,37.311665 101.263733,38.037689 97.272621,37.996761 
	C94.789383,37.971298 93.194885,38.658791 92.477570,41.176876 
	C91.908531,43.174416 91.356529,46.131409 88.510101,44.889053 
	C85.601242,43.619450 88.746559,41.469875 88.756317,39.323780 
z"/>
<path fill="#000000" opacity="1.000000" stroke="none" 
	d="
M102.804161,20.605007 
	C100.854263,20.974091 98.860367,20.979740 96.439087,20.935726 
	C96.011169,20.184711 96.010628,19.483356 96.046265,18.432110 
	C98.631317,17.803244 101.112625,17.733196 102.804161,20.605007 
z"/>
<path fill="#F7F9FE" opacity="1.000000" stroke="none" 
	d="
M101.441620,35.667011 
	C94.552879,35.928593 94.101067,35.336555 96.031670,29.190622 
	C96.322639,28.264347 96.635719,27.341955 96.999153,26.442240 
	C97.514038,25.167593 97.522125,23.150362 99.353073,23.291872 
	C100.808441,23.404354 101.012062,25.034388 101.055511,26.434952 
	C101.149612,29.468456 104.777618,32.202335 101.441620,35.667011 
z"/>
<path fill="#5B7FE6" opacity="1.000000" stroke="none" 
	d="
M100.879585,32.974930 
	C96.414734,33.972641 96.414734,33.972641 98.736206,27.953005 
	C100.371315,29.174402 100.475975,30.975779 100.879585,32.974930 
z"/>
</svg>